<svg  version="1.1" width="40" viewBox="70 30 270 270" xmlns="http://www.w3.org/2000/svg" xmlns:xlink="http://www.w3.org/1999/xlink">
    <g>
        <path id="path0"
              d="M76.073 62.860 C 74.458 64.748,74.566 57.369,74.566 165.838 L 74.566 266.305 75.398 266.960 L 76.231 267.615 205.493 267.613 C 333.797 267.612,334.763 267.608,335.782 266.986 L 336.809 266.360 336.809 165.956 L 336.809 65.552 335.695 63.898 L 334.580 62.243 205.591 62.243 C 78.024 62.243,76.596 62.250,76.073 62.860 M325.340 72.341 C 327.703 73.782,327.479 64.443,327.569 165.325 C 327.660 266.271,327.867 257.063,325.467 258.678 L 324.393 259.400 205.561 259.388 C 112.934 259.380,86.585 259.293,86.072 258.994 C 84.823 258.265,83.882 257.343,83.490 256.462 C 83.014 255.394,82.904 76.971,83.378 75.319 C 83.724 74.112,84.536 73.098,85.782 72.318 C 87.301 71.366,323.779 71.389,325.340 72.341 M181.562 87.599 C 181.319 88.554,179.724 90.460,177.416 92.554 C 176.560 93.330,174.092 97.880,174.092 98.682 C 174.092 99.348,172.250 101.738,171.737 101.738 C 171.487 101.738,170.747 102.769,170.092 104.028 C 169.343 105.469,168.135 107.085,166.836 108.382 C 163.511 111.703,164.968 111.532,139.976 111.532 C 116.312 111.532,113.435 111.695,112.526 113.080 C 111.386 114.819,111.647 164.036,112.808 166.212 C 113.706 167.896,163.700 168.087,166.402 166.417 C 168.007 165.425,168.391 140.189,166.859 136.367 C 166.020 134.272,166.001 134.284,164.907 137.599 C 164.505 138.815,164.087 139.882,163.977 139.968 C 163.866 140.055,163.586 140.818,163.353 141.664 C 163.121 142.510,162.620 143.576,162.240 144.034 C 161.612 144.791,161.573 145.063,161.802 147.077 C 161.940 148.294,162.060 150.756,162.069 152.549 L 162.085 155.809 160.427 157.529 C 157.927 160.120,154.304 160.734,142.338 160.593 C 120.597 160.338,121.632 160.474,118.696 157.490 L 116.958 155.725 116.848 139.711 C 116.722 121.435,116.546 122.721,119.591 119.647 C 122.872 116.333,121.588 116.557,137.054 116.600 C 151.503 116.640,154.444 116.855,155.852 117.978 C 157.657 119.417,157.747 125.750,155.962 125.750 C 155.350 125.750,153.319 128.951,153.062 130.318 C 152.824 131.591,151.648 133.194,150.742 133.481 C 150.427 133.582,149.900 134.265,149.572 134.999 C 147.673 139.252,144.358 140.393,141.526 137.768 C 140.930 137.216,140.056 136.559,139.583 136.309 C 138.487 135.729,136.213 132.394,135.659 130.553 C 135.040 128.496,134.787 128.279,133.480 128.680 C 132.752 128.904,132.385 129.210,132.385 129.595 C 132.385 129.913,132.243 130.174,132.070 130.174 C 131.885 130.174,131.754 131.227,131.754 132.701 C 131.754 134.092,131.884 135.229,132.044 135.229 C 132.319 135.229,132.799 136.548,133.626 139.579 C 133.828 140.320,134.400 141.390,134.897 141.955 C 135.874 143.068,137.761 146.886,138.406 149.056 C 138.941 150.854,139.063 150.924,142.280 151.251 L 145.066 151.535 145.993 150.480 C 146.503 149.900,146.919 149.293,146.919 149.131 C 146.919 148.969,147.355 148.370,147.888 147.799 C 148.421 147.228,149.184 146.406,149.584 145.972 C 150.311 145.181,152.923 139.411,152.923 138.593 C 152.923 138.076,154.438 136.495,154.940 136.487 C 155.527 136.478,156.594 135.145,157.062 133.837 C 157.518 132.562,158.555 131.315,159.844 130.490 C 161.345 129.529,161.718 129.020,162.540 126.808 C 163.003 125.565,163.729 124.143,164.155 123.648 C 164.580 123.154,164.928 122.668,164.929 122.569 C 164.929 122.470,165.345 121.922,165.854 121.352 C 166.363 120.782,167.283 119.370,167.899 118.215 C 168.515 117.059,169.591 115.485,170.291 114.717 C 170.991 113.949,171.564 113.132,171.564 112.901 C 171.564 112.669,171.680 112.480,171.821 112.480 C 171.963 112.480,172.331 111.947,172.639 111.295 C 173.218 110.073,175.192 107.374,176.642 105.821 C 177.096 105.335,177.992 103.862,178.633 102.548 C 179.273 101.233,179.912 100.158,180.052 100.158 C 180.684 100.158,182.659 97.721,182.973 96.553 C 183.163 95.848,183.653 94.610,184.063 93.802 L 184.807 92.334 184.226 90.745 C 183.750 89.441,182.163 86.888,181.829 86.888 C 181.782 86.888,181.662 87.208,181.562 87.599 M206.083 132.650 C 205.083 133.056,203.824 133.577,203.283 133.808 L 202.301 134.228 202.114 137.493 C 202.011 139.289,202.027 141.754,202.148 142.970 L 202.370 145.182 203.791 145.626 C 204.573 145.870,205.284 146.161,205.371 146.273 C 206.074 147.177,208.790 147.235,250.338 147.235 C 291.693 147.235,294.155 147.183,294.155 146.305 C 294.155 146.197,294.581 145.856,295.103 145.548 L 296.051 144.988 296.051 139.638 L 296.051 134.288 294.392 133.188 L 292.733 132.088 250.317 132.000 L 207.901 131.912 206.083 132.650 M115.972 181.250 C 112.786 181.782,113.244 181.374,112.481 184.357 C 111.875 186.725,111.848 187.856,111.848 210.769 L 111.848 234.707 112.616 235.619 C 113.896 237.141,116.259 237.284,140.004 237.276 C 163.656 237.269,165.736 237.133,167.053 235.499 L 167.781 234.597 167.696 209.953 C 167.592 179.788,167.937 181.981,163.169 181.200 C 159.148 180.541,119.968 180.582,115.972 181.250 M157.707 188.653 C 159.977 189.802,161.322 191.842,161.722 194.743 C 162.328 199.134,162.243 224.006,161.618 225.320 C 158.320 232.251,159.526 231.905,138.969 231.820 L 122.646 231.754 121.306 230.806 C 120.479 230.220,119.411 228.951,118.514 227.488 L 117.062 225.118 116.965 211.848 C 116.817 191.620,117.338 189.624,123.207 187.926 C 124.905 187.435,156.620 188.103,157.707 188.653 M207.267 201.541 C 207.267 201.693,206.347 202.081,205.221 202.403 C 202.967 203.049,202.843 203.208,202.232 206.256 C 201.804 208.389,201.796 213.126,202.220 213.917 C 202.398 214.250,203.315 214.900,204.258 215.362 C 205.201 215.824,206.394 216.613,206.909 217.117 L 207.845 218.032 250.113 218.015 C 290.116 217.999,292.408 217.968,292.901 217.440 C 296.823 213.230,296.775 213.401,296.000 206.247 L 295.633 202.857 294.262 202.333 C 293.508 202.046,292.891 201.687,292.891 201.537 C 292.891 201.385,273.923 201.264,250.079 201.264 C 225.789 201.264,207.267 201.384,207.267 201.541 "
              stroke="none" fill="#f62b3e" fill-rule="evenodd"></path>
    </g>
</svg>
