<svg version="1.1" width="40" viewBox="80 30 220 220"
     xmlns="http://www.w3.org/2000/svg" xmlns:xlink="http://www.w3.org/1999/xlink">
    <g>
        <path id="path0"
              d="M146.806 50.081 C 146.286 50.746,146.241 51.200,146.113 57.148 C 145.890 67.453,146.510 67.037,131.090 67.210 C 121.961 67.313,120.845 67.372,120.486 67.768 C 120.153 68.137,120.071 69.413,120.002 75.333 C 119.879 85.875,121.069 85.057,105.673 85.182 C 98.581 85.240,94.472 85.370,94.261 85.544 C 93.788 85.935,93.775 226.651,94.248 227.124 C 94.754 227.630,235.176 227.580,235.596 227.074 C 235.806 226.820,235.911 224.638,235.934 220.016 C 235.989 209.177,234.901 209.944,250.391 209.818 C 257.721 209.758,261.715 209.630,261.934 209.448 C 262.189 209.237,262.269 207.549,262.271 202.408 C 262.272 195.291,262.439 193.933,263.415 193.087 C 264.688 191.984,264.945 191.959,276.561 191.822 C 282.753 191.749,287.918 191.590,288.039 191.469 C 288.277 191.230,288.497 51.438,288.260 50.462 C 288.135 49.945,287.947 49.868,286.802 49.868 C 286.080 49.868,285.488 49.749,285.488 49.604 C 285.488 49.429,262.301 49.345,216.425 49.355 L 147.361 49.370 146.806 50.081 M277.252 56.074 C 277.356 56.222,277.737 56.473,278.100 56.633 C 278.463 56.792,279.354 57.457,280.079 58.110 L 281.398 59.297 281.266 119.180 L 281.135 179.064 279.903 180.891 C 277.307 184.744,276.796 184.960,270.308 184.960 L 265.497 184.960 264.570 183.934 C 264.060 183.370,263.563 182.657,263.466 182.351 C 263.369 182.045,263.190 181.794,263.070 181.794 C 262.331 181.794,262.269 177.280,262.269 123.378 C 262.269 85.918,262.182 68.140,261.996 67.793 C 261.727 67.291,260.854 67.282,208.835 67.282 C 149.771 67.282,154.313 67.431,153.318 65.468 C 152.009 62.889,152.496 57.102,154.063 56.605 C 154.368 56.508,154.617 56.326,154.617 56.201 C 154.617 55.652,276.869 55.526,277.252 56.074 M252.893 74.219 C 254.241 74.827,254.822 75.365,255.365 76.512 C 255.914 77.671,256.207 194.184,255.669 197.361 C 254.815 202.398,252.980 203.450,245.119 203.409 C 239.337 203.379,238.063 202.975,237.258 200.922 C 237.030 200.342,236.754 199.806,236.644 199.730 C 235.964 199.264,235.884 192.999,235.884 140.475 C 235.884 95.095,235.824 85.767,235.530 85.523 C 235.274 85.310,220.574 85.211,182.034 85.161 C 131.801 85.096,128.845 85.067,128.039 84.626 C 126.669 83.877,126.328 82.904,126.365 79.849 C 126.414 75.854,126.739 75.018,128.629 74.029 C 129.930 73.347,251.372 73.533,252.893 74.219 M227.441 92.264 C 228.694 93.045,229.314 94.198,229.483 96.062 C 229.561 96.922,229.727 97.625,229.852 97.625 C 229.978 97.625,230.079 123.857,230.079 156.728 C 230.079 195.954,229.990 215.831,229.815 215.831 C 229.670 215.831,229.551 216.336,229.550 216.953 C 229.549 219.103,227.811 220.841,225.660 220.843 C 225.043 220.844,224.538 220.963,224.538 221.108 C 224.538 221.283,204.661 221.372,165.435 221.372 C 132.460 221.372,106.332 221.271,106.332 221.144 C 106.332 221.019,105.546 220.853,104.586 220.776 C 101.578 220.535,100.604 219.418,100.255 215.813 C 99.833 211.452,99.936 99.530,100.364 96.678 C 100.890 93.174,101.668 92.248,104.426 91.841 C 105.257 91.718,133.067 91.633,166.227 91.653 L 226.517 91.689 227.441 92.264 "
              stroke="none" fill="#f4142c" fill-rule="evenodd"></path>
    </g>
</svg>
