<svg version="1.1" width="40" viewBox="35 30 250 250"
     xmlns="http://www.w3.org/2000/svg" xmlns:xlink="http://www.w3.org/1999/xlink">
    <g>
        <path id="path0"
              d="M208.892 58.933 C 208.235 59.045,206.872 59.280,205.863 59.456 C 203.666 59.840,199.706 61.629,199.480 62.340 C 199.394 62.614,198.609 63.569,197.737 64.463 C 196.865 65.357,196.151 66.151,196.151 66.227 C 196.151 66.303,195.714 67.025,195.178 67.830 C 194.327 69.113,194.183 69.568,194.023 71.476 C 193.656 75.867,191.721 78.363,187.919 79.347 C 185.491 79.976,185.322 80.051,182.920 81.561 C 181.944 82.174,180.478 82.778,179.150 83.114 C 176.646 83.747,175.960 84.039,173.590 85.474 C 172.641 86.049,171.447 86.592,170.936 86.680 C 169.548 86.920,166.912 87.833,166.158 88.335 C 164.290 89.578,161.236 90.776,159.936 90.776 C 158.886 90.776,156.887 91.574,156.367 92.200 C 156.169 92.439,155.857 92.634,155.674 92.634 C 155.490 92.634,155.200 92.804,155.028 93.011 C 154.565 93.569,151.123 94.699,149.339 94.878 C 147.979 95.015,147.611 95.186,146.420 96.229 C 145.007 97.466,142.799 98.474,141.503 98.474 C 140.421 98.474,139.102 98.974,137.904 99.840 C 137.328 100.257,136.665 100.597,136.431 100.597 C 136.197 100.597,135.892 100.708,135.753 100.844 C 135.301 101.285,132.616 102.231,131.121 102.475 C 130.221 102.622,129.226 103.020,128.526 103.513 C 127.901 103.953,127.279 104.313,127.144 104.313 C 127.009 104.313,126.147 104.669,125.228 105.103 C 124.309 105.537,122.876 106.067,122.044 106.279 C 121.212 106.492,120.197 106.913,119.788 107.214 C 118.784 107.955,113.684 109.824,111.432 110.276 C 111.041 110.355,110.563 110.575,110.370 110.765 C 109.348 111.776,104.356 113.737,101.742 114.156 C 100.747 114.315,99.336 114.546,98.607 114.668 C 97.877 114.791,92.024 114.900,85.601 114.911 C 76.363 114.927,73.450 115.016,71.666 115.336 C 70.425 115.559,68.573 115.854,67.551 115.991 C 64.584 116.391,58.428 118.574,57.418 119.585 C 57.204 119.799,56.876 119.973,56.689 119.973 C 55.994 119.973,53.976 121.256,52.812 122.437 C 52.151 123.109,51.292 123.779,50.902 123.927 C 50.512 124.075,49.984 124.530,49.728 124.938 C 49.327 125.579,48.039 126.914,46.384 128.407 C 46.128 128.637,45.919 128.988,45.919 129.188 C 45.919 129.714,44.889 131.652,44.609 131.652 C 43.586 131.652,42.236 134.725,41.518 138.686 C 41.280 140.000,40.859 141.963,40.583 143.049 C 39.640 146.750,39.897 151.308,41.394 157.399 C 41.663 158.494,41.962 160.037,42.058 160.829 C 42.273 162.591,42.524 163.100,43.794 164.342 C 44.768 165.296,45.363 166.354,46.352 168.892 C 46.759 169.938,47.046 170.254,47.954 170.659 C 48.562 170.930,49.272 171.491,49.531 171.906 C 50.159 172.911,51.982 174.652,52.407 174.652 C 52.593 174.652,53.270 175.069,53.911 175.578 C 54.552 176.088,55.146 176.506,55.232 176.507 C 55.318 176.508,55.872 176.970,56.463 177.532 C 57.249 178.280,57.842 178.596,58.669 178.707 C 60.428 178.943,63.063 180.402,63.754 181.524 C 64.588 182.876,65.295 184.744,65.295 185.594 C 65.295 185.991,65.773 187.264,66.357 188.422 C 66.941 189.580,67.420 190.748,67.422 191.017 C 67.423 191.286,67.604 192.097,67.822 192.818 C 68.041 193.540,68.475 195.929,68.786 198.127 C 69.140 200.633,69.573 202.618,69.945 203.451 C 70.939 205.671,71.638 208.454,72.845 214.997 C 73.209 216.967,73.813 219.356,74.188 220.305 C 74.563 221.254,74.970 222.687,75.092 223.490 C 75.765 227.927,77.136 234.316,77.923 236.685 C 78.418 238.176,78.898 239.908,78.991 240.534 C 79.454 243.665,81.347 248.706,82.060 248.706 C 82.161 248.706,82.403 248.857,82.596 249.041 C 84.039 250.421,85.683 250.601,90.569 249.916 C 92.070 249.705,94.791 249.335,96.616 249.093 C 99.044 248.772,100.376 248.449,101.584 247.888 C 102.491 247.467,103.745 247.052,104.371 246.966 C 104.996 246.880,106.284 246.646,107.233 246.447 C 108.182 246.248,109.973 245.954,111.214 245.794 C 115.425 245.249,117.314 244.726,118.353 243.815 C 118.879 243.353,119.871 242.686,120.557 242.332 C 121.466 241.862,121.931 241.406,122.274 240.646 C 122.532 240.073,122.871 239.472,123.026 239.311 C 123.696 238.616,124.436 237.349,124.746 236.364 C 124.930 235.780,125.186 235.188,125.314 235.050 C 125.757 234.571,125.545 233.630,124.818 232.850 C 124.416 232.419,123.921 231.601,123.718 231.030 C 123.515 230.460,123.075 229.666,122.741 229.265 C 122.407 228.864,122.053 228.267,121.954 227.938 C 121.856 227.608,121.263 226.802,120.638 226.145 C 119.504 224.954,118.115 222.634,118.115 221.929 C 118.115 221.725,117.755 220.973,117.315 220.258 C 116.876 219.543,116.396 218.455,116.250 217.840 C 115.530 214.817,114.650 210.397,114.388 208.494 C 114.227 207.326,113.992 206.131,113.866 205.839 C 112.762 203.279,112.476 202.515,112.272 201.593 C 112.143 201.009,111.668 199.098,111.216 197.346 C 110.320 193.870,109.982 191.171,110.258 189.699 C 110.627 187.735,114.782 186.447,115.992 187.922 C 116.682 188.763,119.634 189.962,121.958 190.346 C 122.921 190.505,124.330 191.036,125.542 191.695 C 126.640 192.293,127.941 192.997,128.434 193.261 C 128.927 193.524,130.002 193.875,130.823 194.041 C 132.985 194.478,134.405 195.023,136.255 196.128 C 138.213 197.296,139.519 197.835,141.473 198.281 C 142.276 198.464,143.838 199.073,144.944 199.634 C 146.926 200.638,150.035 201.771,151.797 202.131 C 152.292 202.232,153.283 202.660,153.998 203.082 C 154.714 203.504,155.350 203.849,155.413 203.849 C 155.476 203.849,156.326 204.214,157.302 204.661 C 158.278 205.108,159.803 205.659,160.693 205.886 C 161.582 206.113,162.846 206.611,163.502 206.994 C 164.157 207.377,165.352 207.912,166.156 208.183 C 166.960 208.454,168.119 208.903,168.731 209.182 C 169.344 209.460,170.060 209.689,170.324 209.691 C 170.587 209.692,171.460 210.076,172.263 210.544 C 173.655 211.356,177.371 212.796,179.985 213.538 C 180.655 213.728,181.850 214.239,182.639 214.675 C 183.428 215.110,184.402 215.542,184.802 215.634 C 187.193 216.186,192.170 219.490,192.170 220.527 C 192.170 220.674,192.449 221.133,192.791 221.546 C 193.509 222.413,194.028 223.786,194.028 224.820 C 194.028 226.780,195.806 230.945,196.845 231.419 C 197.178 231.570,197.665 232.028,197.926 232.436 C 198.635 233.540,200.176 235.169,200.512 235.169 C 200.674 235.169,201.508 235.694,202.365 236.335 C 204.766 238.130,208.795 238.761,213.515 238.078 C 215.315 237.818,219.020 236.270,219.444 235.602 C 219.553 235.430,219.997 235.063,220.431 234.786 C 220.865 234.509,221.455 234.064,221.742 233.797 C 222.029 233.530,222.333 233.311,222.418 233.311 C 222.504 233.311,222.807 232.878,223.091 232.349 C 223.376 231.820,223.971 230.997,224.413 230.520 C 227.602 227.074,227.336 229.772,227.361 200.664 C 227.387 172.233,227.282 173.763,229.283 172.477 C 231.008 171.369,231.478 171.168,233.188 170.810 C 234.232 170.592,235.251 170.165,235.881 169.681 C 237.204 168.666,242.855 166.954,244.884 166.954 C 245.290 166.954,245.964 166.548,246.646 165.893 C 247.254 165.309,247.966 164.831,248.229 164.831 C 248.491 164.831,248.707 164.741,248.707 164.632 C 248.708 164.522,249.045 164.074,249.455 163.636 C 250.585 162.430,250.883 160.765,250.784 156.205 C 250.736 154.015,250.740 148.698,250.794 144.390 L 250.890 136.556 249.880 134.484 C 248.812 132.297,248.591 132.086,246.949 131.684 C 245.529 131.336,241.196 129.744,239.349 128.891 C 238.509 128.503,237.314 128.085,236.695 127.963 C 234.057 127.444,230.432 125.687,229.127 124.295 C 227.287 122.333,227.397 123.984,227.425 98.695 C 227.457 70.260,227.383 69.006,225.605 67.811 C 225.180 67.526,224.620 66.873,224.361 66.360 C 224.101 65.847,223.799 65.388,223.689 65.340 C 223.580 65.291,223.490 65.103,223.490 64.921 C 223.490 64.515,222.375 63.437,221.954 63.437 C 221.785 63.437,221.472 63.109,221.259 62.707 C 220.604 61.470,219.204 60.602,216.967 60.045 C 211.001 58.559,211.055 58.566,208.892 58.933 M212.873 69.946 C 213.530 70.297,214.446 70.765,214.908 70.987 C 217.458 72.207,217.386 71.256,217.315 102.455 C 217.281 117.419,217.253 150.564,217.253 176.111 L 217.253 222.561 216.546 223.889 C 214.896 226.986,212.276 228.591,209.661 228.108 C 205.855 227.404,204.640 226.049,203.326 221.042 C 202.792 219.006,202.788 218.470,202.793 147.784 L 202.799 76.576 203.359 74.851 C 204.120 72.509,204.683 71.368,205.168 71.188 C 205.391 71.106,205.876 70.818,206.244 70.550 C 206.860 70.101,209.892 69.339,211.148 69.317 C 211.440 69.312,212.216 69.595,212.873 69.946 M190.404 90.652 C 193.335 91.524,194.035 93.420,193.730 99.668 C 193.443 105.567,193.476 195.853,193.766 198.158 C 194.332 202.650,192.095 206.570,188.985 206.540 C 187.820 206.528,184.966 205.565,183.775 204.782 C 183.027 204.290,181.932 203.757,181.343 203.598 C 178.846 202.926,175.264 201.640,174.266 201.058 C 173.675 200.713,172.296 200.136,171.201 199.775 C 168.541 198.897,165.647 197.563,164.831 196.838 C 164.445 196.495,163.334 196.057,162.177 195.791 C 159.547 195.188,156.963 194.142,155.766 193.197 C 155.194 192.745,154.228 192.324,153.411 192.169 C 150.334 191.585,147.429 190.420,146.043 189.213 C 145.520 188.758,144.866 188.454,144.412 188.454 C 142.641 188.454,138.027 186.569,137.318 185.556 C 137.091 185.233,136.388 184.928,135.433 184.740 C 131.373 183.939,128.899 183.025,127.538 181.822 C 126.684 181.068,125.260 180.550,123.630 180.403 C 122.027 180.258,118.874 178.902,118.299 178.110 C 117.948 177.628,114.859 176.513,113.850 176.504 C 111.843 176.486,107.833 173.493,106.745 171.201 C 105.500 168.579,106.496 123.955,107.799 123.955 C 107.933 123.955,108.156 123.655,108.296 123.288 C 108.435 122.921,108.880 122.473,109.283 122.293 C 109.687 122.112,110.599 121.575,111.310 121.099 C 112.021 120.623,112.917 120.163,113.302 120.077 C 113.687 119.992,115.076 119.515,116.390 119.018 C 117.704 118.521,118.981 118.114,119.228 118.115 C 119.475 118.115,119.752 117.994,119.844 117.845 C 120.143 117.361,122.611 116.247,123.945 115.994 C 124.662 115.858,126.853 114.966,128.815 114.011 C 130.777 113.057,132.631 112.276,132.936 112.276 C 133.704 112.276,136.274 111.290,138.023 110.325 C 140.756 108.816,141.871 108.311,142.490 108.303 C 143.326 108.292,146.853 107.057,148.354 106.251 C 149.839 105.453,152.794 104.313,153.378 104.313 C 153.613 104.313,155.361 103.534,157.261 102.581 C 159.420 101.498,161.265 100.760,162.177 100.614 C 163.765 100.358,166.319 99.433,166.954 98.883 C 167.521 98.393,172.142 96.616,172.858 96.613 C 173.483 96.610,174.939 95.946,177.802 94.359 C 178.732 93.843,180.583 93.115,181.916 92.741 C 183.249 92.367,184.721 91.826,185.188 91.539 C 186.013 91.031,187.958 90.325,188.678 90.272 C 188.875 90.257,189.651 90.429,190.404 90.652 M273.294 97.572 C 272.585 98.068,271.726 98.474,271.386 98.474 C 271.047 98.474,270.251 98.922,269.618 99.469 C 268.985 100.017,267.963 100.692,267.346 100.969 C 266.729 101.247,266.224 101.572,266.224 101.692 C 266.224 101.812,265.577 102.098,264.787 102.327 C 263.904 102.584,263.197 102.978,262.954 103.349 C 262.736 103.681,261.497 104.565,260.200 105.314 C 256.572 107.408,255.491 109.785,257.331 111.625 C 257.963 112.257,258.556 113.010,258.647 113.298 C 259.214 115.085,262.896 115.092,265.133 113.311 C 265.848 112.742,266.669 112.276,266.956 112.276 C 267.244 112.276,267.765 112.053,268.113 111.781 C 268.461 111.508,269.355 110.967,270.100 110.579 C 270.844 110.191,271.732 109.576,272.073 109.214 C 272.414 108.851,273.119 108.439,273.639 108.298 C 275.347 107.837,279.009 105.263,280.499 103.477 L 281.086 102.773 280.562 101.619 C 280.274 100.984,280.036 100.218,280.032 99.917 C 280.024 99.134,278.748 98.018,277.294 97.522 C 276.608 97.288,275.979 96.989,275.897 96.856 C 275.611 96.393,274.574 96.678,273.294 97.572 M91.362 124.716 C 91.903 124.847,92.539 125.148,92.774 125.384 C 93.010 125.620,93.354 125.813,93.539 125.813 C 93.914 125.813,95.842 127.782,96.295 128.629 C 96.522 129.053,96.798 160.923,96.631 167.403 C 96.609 168.231,94.649 170.389,93.201 171.179 L 91.971 171.849 81.837 171.940 C 70.675 172.041,69.740 171.956,66.811 170.584 C 65.758 170.091,64.240 169.476,63.437 169.217 C 61.334 168.538,60.536 168.087,59.190 166.816 C 58.534 166.195,57.488 165.374,56.868 164.990 C 56.124 164.531,55.740 164.105,55.740 163.740 C 55.740 163.412,55.104 162.574,54.183 161.686 C 52.237 159.811,52.171 159.679,51.501 156.314 C 51.198 154.794,50.720 152.893,50.440 152.090 C 50.159 151.287,49.856 150.033,49.766 149.302 C 49.597 147.922,49.685 147.435,50.824 143.464 C 51.201 142.150,51.620 140.439,51.756 139.662 C 52.020 138.148,53.059 136.253,54.713 134.270 C 55.278 133.593,55.740 132.862,55.740 132.646 C 55.740 132.034,58.123 129.794,58.773 129.794 C 59.089 129.794,59.999 129.379,60.795 128.872 C 61.591 128.365,62.445 127.947,62.693 127.943 C 62.941 127.939,63.864 127.514,64.744 126.998 C 67.089 125.624,70.043 124.743,73.125 124.499 C 76.475 124.234,90.049 124.395,91.362 124.716 M66.895 132.382 C 64.745 133.519,64.366 134.840,64.366 141.208 C 64.366 147.807,64.578 148.343,67.391 148.863 C 71.894 149.696,73.258 147.750,73.258 140.493 L 73.258 135.940 72.528 135.170 C 72.127 134.746,71.284 133.782,70.655 133.026 C 69.314 131.413,68.871 131.337,66.895 132.382 M82.527 133.310 C 81.663 134.201,80.956 135.089,80.956 135.282 C 80.956 135.476,80.840 135.634,80.699 135.634 C 79.925 135.634,79.861 144.229,80.625 145.587 C 80.789 145.879,80.990 146.438,81.072 146.829 C 81.362 148.208,83.829 149.298,85.819 148.924 C 89.394 148.253,89.752 147.624,89.845 141.871 C 89.876 139.973,89.985 138.003,90.088 137.492 C 90.241 136.732,90.151 136.396,89.597 135.648 C 89.224 135.146,88.918 134.599,88.918 134.434 C 88.918 133.834,87.590 132.909,85.864 132.306 L 84.098 131.689 82.527 133.310 M234.994 137.337 C 237.770 138.060,238.765 138.899,240.123 141.665 L 240.876 143.198 240.868 149.038 C 240.859 156.374,240.651 156.925,237.350 158.363 C 235.728 159.069,235.588 159.145,234.607 159.842 C 234.207 160.127,233.176 160.362,231.832 160.474 L 229.694 160.652 228.897 159.623 C 227.541 157.869,227.431 157.020,227.432 148.253 C 227.432 137.003,228.392 135.617,234.994 137.337 M261.902 143.728 C 257.408 144.964,257.110 151.060,261.471 152.532 C 265.396 153.856,281.386 153.256,282.643 151.737 C 284.758 149.181,283.177 144.578,279.863 143.640 C 278.271 143.190,263.598 143.261,261.902 143.728 M94.913 182.739 C 96.707 183.272,98.086 184.715,98.474 186.463 C 98.636 187.193,98.918 188.029,99.101 188.321 C 99.689 189.259,100.364 191.316,100.600 192.892 C 100.727 193.736,101.149 195.859,101.539 197.611 C 101.929 199.363,102.346 201.355,102.465 202.037 C 102.585 202.720,102.855 203.556,103.066 203.895 C 103.644 204.827,104.195 206.799,104.943 210.617 C 105.315 212.515,105.820 215.083,106.065 216.324 C 106.310 217.565,106.798 219.266,107.151 220.104 C 107.503 220.942,107.962 222.435,108.170 223.422 C 108.728 226.062,108.992 226.853,109.603 227.711 C 109.905 228.135,110.153 228.661,110.153 228.878 C 110.153 229.095,110.328 229.340,110.542 229.423 C 111.440 229.767,112.483 233.590,111.905 234.415 C 111.024 235.672,108.703 236.598,105.327 237.038 C 104.205 237.185,102.876 237.477,102.373 237.687 C 96.821 240.006,90.334 239.723,88.593 237.085 C 87.230 235.020,87.042 234.593,86.673 232.718 C 86.464 231.657,86.040 229.655,85.729 228.268 C 85.419 226.881,85.059 224.959,84.931 223.996 C 84.802 223.033,84.273 220.979,83.755 219.432 C 83.237 217.884,82.814 216.231,82.814 215.758 C 82.814 215.286,82.390 213.099,81.871 210.900 C 80.971 207.080,80.765 206.368,79.604 203.078 C 79.325 202.288,79.098 201.213,79.098 200.688 C 79.098 198.651,77.393 191.081,76.582 189.516 C 76.393 189.151,76.158 188.315,76.061 187.658 C 75.964 187.001,75.823 186.144,75.749 185.755 C 75.592 184.927,76.863 183.585,78.517 182.833 C 79.885 182.212,92.885 182.137,94.913 182.739 M258.778 183.389 C 258.319 183.960,257.652 184.501,257.296 184.591 C 256.544 184.779,256.278 185.372,256.027 187.415 C 255.817 189.131,255.863 189.193,258.193 190.310 C 259.034 190.712,260.543 191.661,261.547 192.419 C 262.551 193.176,264.015 194.036,264.799 194.329 C 265.583 194.622,266.224 194.969,266.224 195.098 C 266.224 195.396,270.377 197.861,271.267 198.091 C 271.632 198.186,272.570 198.751,273.350 199.346 C 276.333 201.622,280.292 198.851,280.292 194.488 L 280.292 192.525 279.164 191.731 C 278.543 191.295,277.618 190.770,277.107 190.565 C 276.596 190.361,275.901 189.865,275.564 189.464 C 275.226 189.063,274.530 188.619,274.018 188.478 C 273.034 188.206,271.294 187.037,269.733 185.600 C 269.217 185.125,268.307 184.604,267.710 184.444 C 266.353 184.078,264.837 183.314,264.382 182.767 C 264.118 182.448,263.512 182.349,261.825 182.349 L 259.614 182.349 258.778 183.389 "
              stroke="none" fill="#f72f40" fill-rule="evenodd"></path>
    </g>
</svg>
