<svg version="1.1" width="40" viewBox="60 30 300 300"
     xmlns="http://www.w3.org/2000/svg" xmlns:xlink="http://www.w3.org/1999/xlink">
    <g>
        <path id="path0"
              d="M195.648 37.107 C 192.555 37.293,189.942 37.568,189.840 37.718 C 189.738 37.868,185.898 38.286,181.307 38.648 C 176.715 39.009,172.877 39.414,172.777 39.547 C 172.677 39.680,171.044 39.956,169.147 40.160 C 165.795 40.522,165.656 40.574,164.177 42.024 C 163.338 42.847,161.995 43.713,161.183 43.957 C 160.372 44.199,159.710 44.518,159.710 44.664 C 159.710 44.811,158.648 45.141,157.350 45.399 C 156.053 45.657,154.991 46.002,154.991 46.165 C 154.991 46.328,154.552 46.461,154.017 46.461 C 151.789 46.461,148.656 47.672,147.264 49.071 C 146.507 49.832,145.738 50.454,145.554 50.454 C 145.370 50.454,144.927 50.759,144.569 51.133 C 144.212 51.506,143.308 52.029,142.559 52.295 C 141.810 52.560,141.198 52.896,141.198 53.042 C 141.198 53.187,140.299 53.493,139.201 53.721 C 138.103 53.948,137.205 54.269,137.205 54.433 C 137.205 54.597,136.765 54.841,136.227 54.976 C 135.689 55.111,134.402 56.068,133.365 57.103 C 130.845 59.619,130.696 59.724,128.544 60.488 C 127.518 60.852,126.679 61.258,126.679 61.389 C 126.679 61.520,125.535 61.908,124.138 62.250 C 122.409 62.674,121.597 63.046,121.597 63.413 C 121.597 64.202,120.423 66.062,119.924 66.062 C 119.689 66.062,119.411 66.285,119.307 66.557 C 119.202 66.830,118.368 67.274,117.453 67.544 C 116.538 67.814,115.789 68.163,115.789 68.319 C 115.789 68.475,115.554 68.603,115.266 68.603 C 114.977 68.603,114.528 68.899,114.267 69.262 C 114.007 69.624,113.507 70.027,113.158 70.158 C 112.809 70.288,112.523 70.715,112.523 71.106 C 112.523 71.497,112.278 72.062,111.978 72.362 C 111.679 72.661,111.428 73.041,111.422 73.205 C 111.389 74.008,109.083 75.850,108.081 75.872 C 107.448 75.886,105.770 77.683,105.465 78.675 C 105.327 79.124,105.092 79.492,104.943 79.492 C 104.795 79.492,104.454 80.049,104.187 80.729 C 103.920 81.409,103.318 82.141,102.849 82.355 C 102.380 82.568,101.996 82.910,101.996 83.114 C 101.996 83.318,101.759 83.485,101.468 83.485 C 100.725 83.485,99.143 85.153,98.875 86.220 C 98.752 86.712,98.501 87.114,98.318 87.114 C 98.135 87.114,97.830 87.525,97.639 88.026 C 97.448 88.528,96.881 89.126,96.378 89.355 C 95.874 89.584,95.463 89.883,95.463 90.018 C 95.463 90.154,94.809 90.481,94.011 90.744 C 93.212 91.008,92.559 91.330,92.559 91.460 C 92.559 91.590,92.267 92.013,91.909 92.400 C 91.552 92.787,91.038 94.034,90.767 95.172 C 90.496 96.310,90.053 97.326,89.783 97.430 C 89.513 97.533,89.290 97.827,89.288 98.083 C 89.286 98.339,88.715 99.102,88.018 99.779 C 87.321 100.456,86.751 101.192,86.751 101.416 C 86.751 101.639,86.425 102.026,86.025 102.275 C 85.626 102.524,85.299 102.972,85.299 103.270 C 85.299 103.568,85.141 103.811,84.947 103.811 C 84.753 103.811,84.333 104.710,84.013 105.808 C 83.694 106.906,83.296 107.804,83.128 107.804 C 82.960 107.804,82.711 108.461,82.576 109.263 C 82.440 110.066,82.133 110.923,81.893 111.169 C 81.654 111.414,81.226 112.181,80.943 112.873 C 80.659 113.565,79.805 114.773,79.045 115.557 C 78.158 116.471,77.510 117.582,77.241 118.654 C 77.009 119.574,76.622 120.525,76.380 120.767 C 76.139 121.009,75.743 122.602,75.501 124.306 C 75.259 126.010,74.944 127.405,74.801 127.405 C 74.658 127.405,74.314 128.240,74.036 129.260 C 73.758 130.281,73.320 131.197,73.063 131.296 C 72.806 131.394,72.595 131.662,72.595 131.891 C 72.595 132.120,72.097 132.778,71.488 133.353 C 70.878 133.928,70.286 134.866,70.172 135.439 C 70.057 136.011,69.850 136.479,69.711 136.479 C 69.572 136.479,69.165 139.093,68.806 142.287 C 68.448 145.481,68.010 148.094,67.834 148.094 C 67.658 148.094,67.514 148.457,67.514 148.900 C 67.514 150.146,66.657 153.539,66.342 153.539 C 66.188 153.539,66.062 153.876,66.062 154.288 C 66.062 155.311,64.955 158.621,64.612 158.621 C 64.460 158.621,64.120 159.152,63.858 159.800 C 63.595 160.449,63.269 161.062,63.133 161.162 C 61.253 162.537,61.427 197.957,63.322 199.853 C 63.631 200.162,63.884 200.637,63.884 200.907 C 63.884 201.178,64.113 201.629,64.393 201.909 C 64.932 202.448,66.062 205.465,66.062 206.365 C 66.062 206.657,66.214 206.897,66.401 206.897 C 66.588 206.897,66.946 208.122,67.198 209.619 C 67.449 211.116,67.766 212.341,67.900 212.341 C 68.035 212.341,68.255 213.525,68.389 214.973 C 68.814 219.562,69.429 223.593,69.705 223.593 C 69.852 223.593,70.081 224.317,70.213 225.202 C 70.433 226.666,72.147 229.038,72.984 229.038 C 73.123 229.038,73.541 230.017,73.914 231.213 C 74.287 232.409,74.697 233.389,74.825 233.391 C 74.954 233.392,75.352 234.946,75.709 236.842 C 76.066 238.739,76.477 240.290,76.623 240.290 C 76.768 240.290,76.996 240.934,77.129 241.720 C 77.261 242.506,77.766 243.576,78.249 244.098 C 78.733 244.619,79.129 245.190,79.129 245.365 C 79.129 245.540,79.362 245.916,79.646 246.201 C 79.931 246.485,80.413 247.314,80.717 248.041 C 81.021 248.769,81.420 249.365,81.604 249.365 C 81.788 249.365,82.144 250.100,82.396 250.998 C 82.647 251.897,82.981 252.632,83.137 252.632 C 83.293 252.632,83.536 253.326,83.676 254.174 C 84.023 256.269,85.353 258.439,86.288 258.439 C 86.830 258.439,88.924 261.136,89.324 262.347 C 89.552 263.039,90.006 263.901,90.332 264.263 C 91.412 265.460,91.687 265.869,92.214 267.060 C 92.501 267.709,92.926 268.240,93.158 268.240 C 93.390 268.240,94.126 268.911,94.794 269.733 C 95.461 270.554,96.701 271.929,97.550 272.789 C 98.398 273.649,99.093 274.500,99.093 274.679 C 99.093 274.859,99.583 275.554,100.181 276.225 C 100.780 276.896,101.270 277.622,101.270 277.838 C 101.270 278.216,102.206 278.834,103.539 279.337 C 103.888 279.469,104.174 279.808,104.174 280.090 C 104.174 280.372,104.399 280.690,104.673 280.795 C 104.947 280.900,105.474 281.548,105.844 282.235 C 106.214 282.922,106.627 283.485,106.762 283.485 C 106.897 283.485,107.178 283.975,107.387 284.574 C 107.595 285.172,108.008 285.662,108.304 285.662 C 108.599 285.662,109.057 285.867,109.321 286.116 C 109.585 286.366,110.290 286.810,110.889 287.104 C 111.488 287.398,112.223 287.842,112.523 288.092 C 114.819 290.007,116.018 291.063,116.873 291.924 C 117.418 292.473,118.051 292.922,118.279 292.922 C 118.507 292.922,118.693 293.081,118.693 293.276 C 118.693 293.470,119.224 293.901,119.873 294.232 C 120.522 294.564,121.173 295.040,121.320 295.290 C 121.467 295.540,122.001 295.848,122.505 295.975 C 123.919 296.330,126.679 298.759,126.679 299.649 C 126.679 299.896,127.291 300.387,128.040 300.738 C 128.789 301.090,129.483 301.492,129.583 301.631 C 129.682 301.771,130.703 302.177,131.851 302.535 C 132.999 302.892,133.939 303.285,133.940 303.407 C 133.941 303.530,134.472 304.219,135.120 304.940 C 135.768 305.660,136.537 306.598,136.830 307.025 C 137.123 307.452,137.899 307.901,138.554 308.024 C 139.210 308.147,139.746 308.371,139.746 308.521 C 139.746 308.671,140.726 309.002,141.924 309.256 C 143.122 309.510,144.102 309.845,144.102 310.000 C 144.102 310.156,145.327 310.572,146.824 310.925 C 148.321 311.278,149.546 311.700,149.546 311.863 C 149.546 312.026,149.760 312.160,150.022 312.160 C 150.284 312.160,150.815 312.454,151.202 312.813 C 151.589 313.172,152.477 313.785,153.176 314.174 C 153.875 314.564,154.528 314.977,154.628 315.094 C 154.851 315.355,160.682 316.516,161.766 316.516 C 162.199 316.516,162.607 316.665,162.674 316.848 C 162.740 317.030,164.387 317.392,166.334 317.651 C 168.280 317.911,169.873 318.252,169.873 318.408 C 169.873 318.565,170.346 318.693,170.923 318.693 C 172.263 318.693,177.619 319.789,177.858 320.113 C 177.958 320.247,178.756 320.588,179.631 320.870 C 180.505 321.151,181.458 321.619,181.747 321.908 C 182.048 322.208,183.620 322.596,185.419 322.813 C 187.150 323.022,188.651 323.312,188.754 323.459 C 189.480 324.490,225.766 324.487,226.493 323.456 C 226.595 323.311,228.095 323.022,229.826 322.813 C 231.739 322.582,233.192 322.214,233.533 321.873 C 233.841 321.565,234.956 321.108,236.012 320.858 C 237.067 320.608,238.027 320.255,238.145 320.075 C 238.262 319.895,239.977 319.482,241.956 319.158 C 243.935 318.833,245.635 318.461,245.735 318.330 C 245.835 318.200,247.591 317.875,249.637 317.608 C 251.683 317.342,253.358 317.023,253.358 316.899 C 253.358 316.775,255.073 316.369,257.169 315.997 C 259.265 315.624,260.980 315.213,260.980 315.083 C 260.980 314.953,261.552 314.640,262.250 314.387 C 262.949 314.134,263.680 313.630,263.874 313.267 C 264.069 312.904,264.640 312.503,265.145 312.376 C 265.649 312.249,266.062 311.994,266.062 311.808 C 266.062 311.621,267.368 311.188,268.966 310.845 C 270.563 310.502,271.869 310.106,271.869 309.965 C 271.869 309.825,272.849 309.492,274.047 309.226 C 275.245 308.961,276.225 308.614,276.225 308.455 C 276.225 308.297,276.719 308.167,277.322 308.167 C 278.171 308.167,278.517 307.941,278.854 307.169 C 279.643 305.360,282.517 302.869,284.348 302.408 C 285.270 302.176,286.025 301.855,286.025 301.696 C 286.025 301.536,286.597 301.182,287.296 300.907 C 287.995 300.633,288.566 300.222,288.566 299.993 C 288.566 299.414,291.121 296.915,291.712 296.915 C 291.978 296.915,292.196 296.771,292.196 296.596 C 292.196 296.420,292.686 296.074,293.285 295.826 C 293.884 295.578,294.374 295.239,294.374 295.073 C 294.374 294.907,294.986 294.483,295.735 294.131 C 297.415 293.340,297.631 293.178,299.988 290.926 C 302.610 288.420,303.796 287.530,305.172 287.032 C 305.821 286.798,306.352 286.494,306.352 286.358 C 306.352 286.222,306.678 286.025,307.076 285.921 C 307.474 285.817,307.915 285.430,308.054 285.062 C 308.194 284.693,308.521 284.176,308.782 283.912 C 309.043 283.649,309.256 283.222,309.256 282.963 C 309.256 282.705,309.743 281.941,310.339 281.265 C 310.935 280.589,311.425 279.939,311.428 279.819 C 311.431 279.700,312.087 279.307,312.886 278.947 C 313.684 278.587,314.338 278.072,314.338 277.803 C 314.338 277.534,314.550 277.314,314.809 277.314 C 315.068 277.314,315.498 276.701,315.764 275.953 C 316.311 274.415,316.199 274.557,320.035 270.526 C 321.593 268.888,323.031 267.327,323.230 267.057 C 323.837 266.237,324.492 265.184,324.753 264.610 C 324.889 264.310,325.189 263.902,325.421 263.702 C 325.652 263.503,326.063 262.774,326.335 262.084 C 326.607 261.393,327.308 260.413,327.892 259.906 C 330.136 257.957,331.397 256.497,331.397 255.848 C 331.397 255.476,331.561 255.172,331.760 255.172 C 331.960 255.172,332.123 254.933,332.123 254.641 C 332.123 253.969,333.221 250.696,333.527 250.454 C 333.796 250.241,334.563 249.048,334.916 248.292 C 335.188 247.709,335.985 246.690,336.879 245.781 C 337.199 245.456,337.660 244.376,337.904 243.381 C 338.148 242.385,338.466 241.487,338.611 241.384 C 338.756 241.282,339.169 239.605,339.530 237.659 C 339.891 235.712,340.311 234.120,340.463 234.120 C 340.616 234.120,340.946 233.385,341.198 232.486 C 341.449 231.588,341.786 230.853,341.946 230.853 C 342.107 230.853,342.349 230.485,342.485 230.036 C 342.622 229.587,343.163 228.786,343.690 228.257 C 344.216 227.728,344.831 227.061,345.057 226.775 C 345.484 226.236,346.642 219.657,346.642 217.771 C 346.642 217.180,346.806 216.697,347.005 216.697 C 347.205 216.697,347.368 216.281,347.368 215.773 C 347.368 213.959,348.603 207.433,349.027 207.005 C 349.264 206.765,349.568 205.989,349.700 205.281 C 349.833 204.572,350.076 203.993,350.239 203.993 C 350.403 203.993,350.830 203.217,351.188 202.269 C 351.546 201.320,351.971 200.457,352.132 200.349 C 353.716 199.294,353.677 160.073,352.092 160.073 C 351.950 160.073,351.530 159.338,351.160 158.439 C 350.789 157.541,350.368 156.806,350.224 156.806 C 350.079 156.806,349.756 155.867,349.504 154.719 C 349.252 153.571,348.929 152.550,348.785 152.449 C 348.443 152.211,347.368 146.991,347.368 145.569 C 347.368 144.962,347.226 144.465,347.052 144.465 C 346.879 144.465,346.626 143.280,346.492 141.833 C 346.136 138.001,345.569 135.024,345.077 134.408 C 344.840 134.112,344.306 133.518,343.891 133.087 C 343.475 132.657,342.905 131.774,342.623 131.125 C 342.340 130.476,342.007 129.946,341.882 129.946 C 341.757 129.946,341.442 129.170,341.181 128.221 C 340.920 127.273,340.602 126.416,340.474 126.316 C 340.345 126.216,339.956 124.664,339.609 122.868 C 339.262 121.071,338.825 119.546,338.636 119.480 C 338.448 119.413,338.294 119.146,338.294 118.886 C 338.294 117.755,337.053 114.701,336.594 114.701 C 336.319 114.701,335.987 114.415,335.856 114.065 C 335.726 113.716,335.342 113.230,335.002 112.985 C 334.662 112.740,334.281 112.127,334.154 111.624 C 334.028 111.120,333.764 110.708,333.568 110.708 C 333.373 110.708,333.212 110.482,333.212 110.205 C 333.212 109.323,332.025 105.989,331.711 105.989 C 331.544 105.989,331.223 105.254,330.997 104.356 C 330.770 103.457,330.441 102.722,330.265 102.722 C 330.090 102.722,329.946 102.413,329.946 102.034 C 329.946 101.656,329.357 100.880,328.638 100.310 C 325.784 98.048,325.075 97.108,324.256 94.494 C 323.508 92.111,322.999 91.475,321.256 90.753 C 320.586 90.476,319.531 89.690,318.912 89.008 C 318.293 88.326,317.524 87.481,317.203 87.130 C 316.883 86.780,316.509 86.051,316.373 85.509 C 316.236 84.963,315.648 84.253,315.053 83.914 C 314.462 83.578,313.978 83.181,313.977 83.031 C 313.976 82.881,313.760 82.759,313.497 82.759 C 312.887 82.759,310.708 80.314,310.708 79.631 C 310.708 79.069,307.337 75.499,306.807 75.499 C 306.233 75.499,304.278 73.529,304.016 72.686 C 303.876 72.237,303.610 71.869,303.424 71.869 C 303.238 71.869,303.085 71.637,303.085 71.354 C 303.085 70.784,300.352 67.877,299.817 67.877 C 297.716 67.877,294.242 65.514,293.817 63.796 C 293.583 62.852,291.166 61.706,289.408 61.706 C 289.145 61.706,288.929 61.575,288.929 61.415 C 288.929 61.255,288.113 60.830,287.114 60.471 C 286.116 60.112,285.299 59.711,285.299 59.580 C 285.299 59.449,284.798 59.120,284.186 58.849 C 282.972 58.312,281.307 56.802,281.307 56.239 C 281.307 56.045,280.735 55.614,280.036 55.281 C 279.338 54.948,278.766 54.563,278.766 54.426 C 278.766 54.290,277.786 53.985,276.588 53.749 C 275.390 53.514,274.410 53.166,274.410 52.976 C 274.410 52.787,274.231 52.632,274.011 52.632 C 273.078 52.632,270.906 51.287,269.496 49.837 C 268.662 48.978,267.793 48.276,267.565 48.276 C 267.337 48.276,267.151 48.149,267.151 47.993 C 267.151 47.595,263.175 46.461,261.779 46.461 C 261.140 46.461,260.617 46.326,260.617 46.162 C 260.617 45.998,259.609 45.676,258.376 45.446 C 257.144 45.217,256.041 44.885,255.926 44.709 C 255.811 44.533,255.064 44.183,254.265 43.933 C 253.466 43.682,252.650 43.277,252.450 43.032 C 252.250 42.787,251.720 42.391,251.270 42.152 C 250.821 41.913,250.454 41.494,250.454 41.222 C 250.454 40.663,246.898 39.927,244.193 39.927 C 243.278 39.927,242.474 39.788,242.408 39.617 C 242.341 39.447,238.530 39.008,233.938 38.641 C 229.347 38.275,225.508 37.861,225.408 37.723 C 224.778 36.847,206.328 36.466,195.648 37.107 M231.861 49.667 C 231.942 49.909,232.729 50.091,233.696 50.092 C 236.074 50.093,241.887 50.837,242.105 51.167 C 242.205 51.318,243.103 51.557,244.102 51.698 C 246.155 51.989,248.730 52.670,249.002 52.995 C 249.102 53.114,249.877 53.414,250.726 53.662 C 251.574 53.910,252.269 54.269,252.269 54.461 C 252.269 54.653,252.494 54.809,252.769 54.809 C 253.044 54.809,253.472 55.054,253.721 55.354 C 253.969 55.653,254.479 55.898,254.854 55.898 C 255.229 55.898,255.535 56.030,255.535 56.190 C 255.535 56.350,257.087 56.786,258.984 57.159 C 260.880 57.532,262.432 57.958,262.432 58.106 C 262.432 58.254,263.089 58.486,263.891 58.622 C 264.694 58.757,265.559 59.077,265.814 59.333 C 266.070 59.588,266.790 60.062,267.416 60.385 C 268.122 60.750,268.727 61.454,269.012 62.243 C 269.434 63.410,269.641 63.546,271.578 63.927 C 272.736 64.155,273.684 64.448,273.684 64.578 C 273.684 64.708,274.428 65.034,275.338 65.302 C 276.247 65.571,277.186 65.974,277.425 66.198 C 277.663 66.423,278.432 66.871,279.133 67.194 C 279.834 67.518,280.651 68.253,280.948 68.828 C 281.245 69.403,281.774 70.190,282.123 70.577 C 282.473 70.964,282.759 71.413,282.759 71.575 C 282.759 71.737,282.994 71.869,283.283 71.869 C 283.571 71.869,284.035 72.196,284.315 72.596 C 284.595 72.995,285.553 73.541,286.443 73.809 C 288.505 74.430,289.939 75.554,291.783 77.994 C 292.255 78.618,292.924 79.129,293.270 79.129 C 293.617 79.129,294.276 79.456,294.737 79.855 C 295.197 80.254,295.707 80.581,295.869 80.581 C 296.674 80.581,299.456 84.074,299.456 85.084 C 299.456 85.372,299.961 85.716,300.584 85.853 C 301.205 85.989,302.041 86.369,302.442 86.698 C 304.587 88.457,305.571 89.619,306.025 90.926 C 306.303 91.724,306.624 92.459,306.740 92.559 C 306.855 92.659,307.056 93.029,307.186 93.381 C 307.316 93.733,307.867 94.191,308.411 94.398 C 309.789 94.922,312.421 97.805,312.706 99.102 C 312.837 99.696,313.068 100.181,313.220 100.181 C 313.373 100.181,313.805 100.753,314.181 101.452 C 314.558 102.151,315.065 102.722,315.310 102.722 C 315.554 102.722,315.884 102.939,316.044 103.203 C 316.203 103.468,316.623 103.791,316.977 103.921 C 317.331 104.051,317.729 104.447,317.862 104.801 C 317.995 105.155,318.293 105.608,318.524 105.808 C 318.755 106.007,319.167 106.742,319.439 107.441 C 319.711 108.140,320.123 108.907,320.356 109.145 C 320.589 109.384,320.999 110.323,321.267 111.232 C 321.536 112.142,321.883 112.886,322.039 112.886 C 322.195 112.886,322.328 113.172,322.335 113.521 C 322.350 114.374,323.000 115.156,324.349 115.945 C 325.180 116.431,325.644 117.128,326.150 118.645 C 326.525 119.770,326.934 120.771,327.057 120.871 C 327.181 120.971,327.496 122.074,327.756 123.321 C 328.017 124.569,328.338 125.590,328.471 125.590 C 328.603 125.590,328.914 126.570,329.161 127.768 C 329.409 128.966,329.768 129.946,329.961 129.946 C 330.523 129.946,332.861 132.593,333.085 133.485 C 333.199 133.934,333.430 134.301,333.601 134.301 C 333.977 134.301,334.517 136.325,334.861 139.020 C 335.001 140.118,335.225 141.098,335.359 141.198 C 335.492 141.298,335.799 142.768,336.040 144.464 C 336.281 146.161,336.642 147.604,336.842 147.671 C 337.042 147.737,337.205 148.080,337.205 148.432 C 337.205 149.231,338.246 151.361,338.637 151.361 C 338.797 151.361,339.223 152.790,339.585 154.537 C 339.946 156.284,340.363 157.797,340.511 157.899 C 341.852 158.826,341.786 202.358,340.444 202.843 C 340.259 202.910,340.107 203.318,340.105 203.751 C 340.098 204.910,339.108 208.432,338.719 208.679 C 338.534 208.797,338.077 209.791,337.703 210.889 C 337.329 211.987,336.918 212.967,336.789 213.067 C 336.660 213.167,336.343 214.515,336.083 216.062 C 335.824 217.609,335.480 218.875,335.319 218.875 C 335.159 218.875,335.027 219.372,335.027 219.979 C 335.027 221.343,333.960 226.610,333.633 226.859 C 333.501 226.960,333.082 227.654,332.701 228.403 C 332.321 229.152,331.902 229.764,331.772 229.764 C 331.027 229.764,329.252 232.128,329.036 233.408 C 328.902 234.199,328.681 234.846,328.545 234.846 C 328.408 234.846,328.092 235.923,327.842 237.239 C 327.592 238.556,327.162 239.859,326.885 240.136 C 326.608 240.413,326.269 241.307,326.131 242.123 C 325.993 242.940,325.652 243.695,325.372 243.803 C 325.093 243.910,324.864 244.186,324.864 244.416 C 324.864 244.863,323.499 246.449,322.426 247.248 C 322.070 247.514,321.466 248.671,321.084 249.819 C 320.703 250.966,320.285 251.906,320.156 251.906 C 320.027 251.906,319.638 252.548,319.292 253.334 C 318.897 254.228,318.260 254.940,317.588 255.238 C 316.998 255.499,316.515 255.906,316.515 256.142 C 316.515 256.378,316.132 256.873,315.663 257.242 C 315.194 257.611,314.606 258.532,314.356 259.290 C 314.106 260.048,313.673 260.756,313.394 260.863 C 313.114 260.970,312.886 261.276,312.886 261.543 C 312.886 261.810,312.582 262.241,312.212 262.502 C 311.841 262.763,311.414 263.385,311.263 263.884 C 310.998 264.755,309.127 266.788,308.588 266.788 C 308.235 266.788,306.484 268.811,305.725 270.097 C 305.385 270.673,304.979 271.143,304.822 271.143 C 304.665 271.143,304.537 271.369,304.537 271.645 C 304.537 272.276,302.383 274.410,301.746 274.410 C 301.484 274.410,301.270 274.542,301.270 274.703 C 301.270 274.865,300.576 275.300,299.728 275.672 C 298.879 276.044,297.972 276.647,297.711 277.012 C 297.450 277.378,297.031 277.677,296.780 277.677 C 296.530 277.677,296.100 278.249,295.826 278.947 C 295.552 279.646,295.212 280.218,295.070 280.218 C 294.929 280.218,294.020 280.968,293.051 281.885 C 292.082 282.802,290.962 283.726,290.563 283.939 C 290.163 284.151,289.116 285.116,288.236 286.083 C 287.355 287.049,286.511 287.840,286.361 287.840 C 286.210 287.840,285.706 288.167,285.240 288.566 C 282.826 290.631,282.175 291.106,281.760 291.107 C 281.511 291.107,281.307 291.254,281.307 291.435 C 281.307 291.615,280.808 291.936,280.198 292.149 C 279.588 292.361,278.649 292.942,278.111 293.439 C 275.579 295.777,275.073 296.189,274.729 296.189 C 274.525 296.189,274.143 296.404,273.881 296.666 C 273.618 296.929,272.486 297.349,271.366 297.600 C 270.245 297.851,269.328 298.196,269.328 298.367 C 269.328 298.538,268.430 298.879,267.332 299.124 C 266.234 299.370,265.336 299.708,265.336 299.876 C 265.336 300.044,265.022 300.181,264.638 300.181 C 264.254 300.181,263.478 300.631,262.914 301.180 C 262.349 301.729,261.438 302.410,260.889 302.693 C 260.340 302.976,259.891 303.326,259.891 303.470 C 259.891 303.614,258.829 303.943,257.532 304.201 C 256.234 304.459,255.172 304.785,255.172 304.924 C 255.172 305.064,253.907 305.286,252.359 305.418 C 248.391 305.756,244.283 306.444,244.283 306.769 C 244.283 306.921,243.737 307.148,243.070 307.273 C 242.403 307.398,241.398 307.895,240.836 308.378 C 240.274 308.861,239.688 309.256,239.534 309.256 C 239.380 309.256,239.024 309.485,238.744 309.765 C 238.163 310.346,235.161 311.434,234.137 311.434 C 233.762 311.434,233.400 311.586,233.333 311.772 C 232.817 313.215,183.172 313.204,182.638 311.761 C 182.571 311.581,182.188 311.434,181.786 311.434 C 180.362 311.434,176.944 310.233,176.477 309.568 C 176.216 309.197,175.806 308.893,175.566 308.893 C 175.326 308.893,174.932 308.577,174.691 308.191 C 174.414 307.747,173.648 307.398,172.607 307.242 C 171.702 307.107,170.962 306.873,170.962 306.724 C 170.962 306.433,167.254 305.804,163.249 305.416 C 161.901 305.285,160.799 305.034,160.799 304.858 C 160.799 304.682,160.450 304.537,160.024 304.537 C 159.161 304.537,156.363 303.777,156.080 303.465 C 155.980 303.356,155.408 303.021,154.809 302.722 C 154.211 302.423,153.287 301.729,152.758 301.180 C 152.229 300.631,151.535 300.181,151.216 300.181 C 150.896 300.181,150.635 300.040,150.635 299.868 C 150.635 299.696,149.655 299.347,148.457 299.093 C 147.260 298.838,146.279 298.508,146.279 298.357 C 146.279 298.207,145.218 297.797,143.920 297.446 C 142.623 297.094,141.561 296.684,141.561 296.533 C 141.561 296.383,141.071 296.089,140.472 295.880 C 139.873 295.671,139.383 295.348,139.383 295.161 C 139.383 294.974,139.058 294.737,138.661 294.633 C 138.264 294.529,137.786 294.040,137.599 293.547 C 137.355 292.905,136.883 292.579,135.942 292.403 C 135.218 292.267,134.536 291.920,134.425 291.632 C 134.314 291.343,134.004 291.107,133.737 291.107 C 133.469 291.107,132.802 290.692,132.255 290.185 C 131.707 289.678,130.687 288.820,129.986 288.279 C 129.286 287.738,128.025 286.602,127.184 285.753 C 126.343 284.905,125.530 284.211,125.379 284.211 C 125.227 284.211,124.398 283.475,123.537 282.577 C 122.677 281.679,121.824 280.944,121.643 280.944 C 121.462 280.944,120.847 280.343,120.276 279.608 C 118.704 277.586,117.773 276.767,115.789 275.662 C 115.091 275.273,114.437 274.871,114.338 274.770 C 114.238 274.668,113.573 274.279,112.860 273.905 C 112.021 273.466,111.349 272.731,110.955 271.822 C 110.621 271.049,110.183 270.417,109.983 270.417 C 109.783 270.417,109.619 270.182,109.619 269.894 C 109.619 269.605,109.322 269.156,108.960 268.895 C 108.597 268.634,108.193 268.132,108.061 267.778 C 107.929 267.424,107.564 267.036,107.250 266.915 C 106.417 266.596,104.802 264.892,104.174 263.672 C 103.875 263.090,103.344 262.400,102.995 262.139 C 102.645 261.878,102.359 261.441,102.359 261.167 C 102.359 260.893,102.144 260.453,101.881 260.189 C 101.618 259.925,101.215 259.170,100.986 258.510 C 100.560 257.288,98.813 255.172,98.228 255.172 C 97.846 255.172,96.189 253.443,96.189 253.044 C 96.189 252.893,95.895 252.452,95.537 252.065 C 95.179 251.678,94.621 250.429,94.298 249.290 C 93.834 247.652,93.286 246.791,91.679 245.170 C 90.226 243.706,89.474 242.589,89.043 241.252 C 88.712 240.224,88.304 239.291,88.138 239.178 C 87.971 239.066,87.558 237.677,87.220 236.093 C 86.883 234.509,86.498 233.131,86.365 233.031 C 86.232 232.931,85.997 232.444,85.842 231.948 C 85.687 231.453,84.849 230.376,83.980 229.555 C 83.032 228.659,82.309 227.605,82.171 226.917 C 82.045 226.287,81.815 225.771,81.661 225.771 C 81.347 225.771,80.731 223.278,80.360 220.508 C 80.226 219.510,80.006 218.612,79.870 218.512 C 79.734 218.412,79.335 216.534,78.984 214.338 C 78.632 212.142,78.204 210.293,78.031 210.231 C 77.859 210.168,77.521 209.519,77.280 208.789 C 77.039 208.059,76.639 207.259,76.391 207.011 C 75.936 206.556,75.136 202.724,75.136 200.999 C 75.136 200.483,74.973 200.006,74.774 199.940 C 73.647 199.562,73.671 161.627,74.799 161.222 C 74.985 161.155,75.136 160.554,75.136 159.885 C 75.136 158.144,76.186 153.380,76.601 153.237 C 76.793 153.170,76.951 152.802,76.951 152.420 C 76.951 152.037,77.256 151.419,77.629 151.046 C 78.322 150.353,78.457 149.853,79.184 145.281 C 79.414 143.834,79.741 142.650,79.910 142.650 C 80.079 142.650,80.218 142.153,80.218 141.545 C 80.218 139.712,81.322 134.960,81.876 134.406 C 82.162 134.120,82.396 133.727,82.396 133.531 C 82.396 133.041,84.738 130.672,85.223 130.672 C 85.440 130.672,85.728 129.936,85.863 129.038 C 85.998 128.140,86.227 127.405,86.373 127.405 C 86.519 127.405,86.929 126.016,87.285 124.319 C 87.641 122.623,88.036 121.234,88.161 121.234 C 88.287 121.234,88.599 120.561,88.856 119.739 C 89.335 118.206,90.666 116.608,92.108 115.836 C 92.556 115.597,92.922 115.162,92.922 114.869 C 92.922 114.577,93.085 114.338,93.285 114.338 C 93.485 114.338,93.648 114.141,93.648 113.902 C 93.648 113.056,94.901 109.256,95.180 109.256 C 95.336 109.256,95.463 109.042,95.463 108.780 C 95.463 108.518,95.754 107.987,96.110 107.600 C 96.466 107.213,97.045 106.284,97.397 105.535 C 97.750 104.787,98.167 104.174,98.325 104.174 C 98.836 104.174,101.270 101.918,101.270 101.445 C 101.270 101.192,101.484 100.903,101.744 100.803 C 102.005 100.703,102.439 99.951,102.710 99.131 C 102.980 98.311,103.328 97.641,103.482 97.641 C 103.636 97.641,103.869 97.305,103.999 96.894 C 104.130 96.483,104.631 95.997,105.113 95.814 C 105.595 95.631,105.989 95.331,105.989 95.148 C 105.989 94.965,106.387 94.716,106.872 94.594 C 107.358 94.472,107.859 94.046,107.986 93.647 C 108.112 93.248,108.347 92.922,108.507 92.922 C 108.667 92.922,109.004 92.187,109.256 91.289 C 109.507 90.390,109.820 89.655,109.951 89.655 C 110.081 89.655,110.465 89.186,110.804 88.613 C 111.142 88.040,111.953 87.353,112.606 87.086 C 113.259 86.819,114.009 86.389,114.273 86.131 C 114.537 85.874,114.986 85.662,115.271 85.662 C 115.556 85.662,115.789 85.417,115.789 85.118 C 115.789 84.819,116.075 84.283,116.425 83.927 C 116.774 83.572,117.282 82.854,117.554 82.332 C 117.826 81.811,118.682 81.081,119.456 80.710 C 120.230 80.340,120.865 79.938,120.867 79.819 C 120.869 79.699,121.585 79.307,122.459 78.947 C 123.640 78.459,124.168 77.982,124.523 77.077 C 124.785 76.409,125.132 75.862,125.295 75.862 C 125.457 75.862,125.893 75.559,126.264 75.188 C 126.635 74.817,127.691 74.257,128.610 73.944 C 129.530 73.631,130.542 73.158,130.860 72.894 C 132.595 71.450,133.902 69.998,134.324 69.045 C 134.642 68.326,135.313 67.758,136.345 67.333 C 137.194 66.982,137.963 66.502,138.054 66.264 C 138.145 66.027,139.135 65.613,140.253 65.345 C 141.372 65.076,142.287 64.720,142.287 64.552 C 142.287 64.384,142.554 64.247,142.880 64.247 C 144.004 64.247,146.279 63.405,146.279 62.989 C 146.279 62.349,148.135 60.254,148.703 60.254 C 148.980 60.254,149.296 60.021,149.405 59.736 C 149.514 59.451,150.408 59.011,151.390 58.760 C 152.372 58.508,153.176 58.190,153.176 58.053 C 153.176 57.916,154.687 57.513,156.534 57.157 C 158.380 56.802,159.973 56.410,160.073 56.286 C 160.172 56.161,160.948 55.754,161.797 55.380 C 162.645 55.005,163.339 54.587,163.339 54.449 C 163.339 54.312,163.993 53.984,164.791 53.721 C 165.590 53.457,166.243 53.121,166.243 52.975 C 166.243 52.828,167.836 52.413,169.782 52.053 C 171.729 51.692,173.403 51.294,173.503 51.169 C 173.714 50.902,180.119 50.091,182.011 50.091 C 182.722 50.091,183.303 49.933,183.303 49.741 C 183.303 48.950,231.598 48.877,231.861 49.667 M173.968 126.150 C 172.832 127.367,172.781 129.707,172.787 180.581 C 172.794 230.263,172.867 233.832,173.895 234.934 C 174.377 235.449,176.407 235.053,176.407 234.443 C 176.407 234.308,176.821 234.094,177.328 233.967 C 177.835 233.840,178.758 233.251,179.378 232.657 C 179.999 232.064,180.728 231.579,180.998 231.579 C 181.267 231.579,181.488 231.413,181.488 231.210 C 181.488 231.007,182.101 230.558,182.849 230.212 C 183.598 229.866,184.415 229.390,184.664 229.155 C 184.914 228.919,186.032 228.537,187.149 228.305 C 189.576 227.801,190.324 227.268,192.684 224.362 C 193.351 223.540,194.127 222.868,194.408 222.868 C 194.689 222.868,194.918 222.730,194.918 222.563 C 194.918 222.395,195.572 222.042,196.370 221.779 C 197.169 221.515,197.822 221.188,197.822 221.052 C 197.822 220.916,198.802 220.508,200.000 220.145 C 201.198 219.783,202.178 219.348,202.178 219.180 C 202.178 219.012,202.464 218.870,202.813 218.863 C 203.555 218.850,204.719 218.042,204.719 217.540 C 204.719 216.916,207.241 214.944,208.352 214.700 C 208.949 214.569,209.437 214.317,209.437 214.141 C 209.437 213.965,210.091 213.645,210.889 213.430 C 211.688 213.215,212.341 212.916,212.341 212.765 C 212.341 212.615,213.038 212.305,213.890 212.077 C 214.742 211.850,215.926 211.244,216.522 210.732 C 217.117 210.220,217.754 209.801,217.937 209.801 C 218.120 209.801,218.528 209.563,218.844 209.273 C 219.161 208.983,219.784 208.413,220.231 208.008 C 220.677 207.602,222.106 207.003,223.407 206.676 C 224.707 206.350,225.771 205.957,225.771 205.804 C 225.771 205.651,226.352 205.417,227.061 205.284 C 227.770 205.150,228.441 204.806,228.552 204.517 C 228.662 204.229,228.944 203.993,229.179 203.993 C 229.413 203.993,230.144 203.421,230.803 202.722 C 231.462 202.024,232.209 201.452,232.463 201.452 C 232.717 201.452,233.398 201.039,233.976 200.534 C 235.682 199.045,235.749 199.006,237.790 198.309 C 238.866 197.941,239.800 197.518,239.867 197.368 C 239.933 197.219,240.276 197.096,240.627 197.096 C 241.222 197.096,242.468 196.048,242.468 195.547 C 242.468 195.046,244.529 193.167,245.355 192.916 C 245.845 192.767,246.454 192.436,246.709 192.181 C 246.964 191.926,247.832 191.606,248.639 191.470 C 249.445 191.334,250.306 191.026,250.552 190.786 C 250.797 190.547,251.570 190.117,252.269 189.832 C 252.967 189.546,254.075 188.777,254.731 188.123 C 255.386 187.468,256.071 186.933,256.253 186.933 C 256.435 186.933,256.797 186.627,257.059 186.254 C 257.321 185.880,258.432 185.267,259.530 184.892 C 260.627 184.517,261.579 184.088,261.645 183.938 C 261.712 183.789,261.915 183.666,262.097 183.666 C 262.753 183.666,265.325 182.402,265.478 182.005 C 265.647 181.563,264.960 180.674,261.854 177.314 C 260.747 176.116,259.730 175.009,259.594 174.855 C 258.892 174.056,257.483 173.096,256.739 172.909 C 256.277 172.793,255.898 172.552,255.898 172.374 C 255.898 172.196,255.613 172.048,255.263 172.045 C 254.402 172.038,251.888 171.144,251.596 170.741 C 251.467 170.563,250.913 170.185,250.365 169.903 C 249.818 169.621,249.120 169.009,248.814 168.542 C 248.509 168.076,248.035 167.695,247.762 167.695 C 247.488 167.695,247.184 167.486,247.086 167.230 C 246.988 166.974,246.072 166.551,245.051 166.289 C 244.030 166.027,243.194 165.696,243.194 165.554 C 243.194 165.411,242.051 164.998,240.653 164.635 C 239.256 164.273,238.113 163.873,238.113 163.746 C 238.113 163.620,237.627 163.302,237.035 163.039 C 235.758 162.474,233.991 160.876,233.655 159.982 C 233.524 159.632,233.085 159.347,232.679 159.347 C 232.274 159.347,231.942 159.219,231.942 159.063 C 231.942 158.907,231.198 158.559,230.288 158.291 C 229.379 158.022,228.440 157.609,228.201 157.372 C 227.963 157.135,226.910 156.633,225.862 156.257 C 224.814 155.881,223.954 155.483,223.951 155.373 C 223.947 155.263,223.457 154.619,222.862 153.944 C 222.266 153.268,221.775 152.533,221.770 152.310 C 221.760 151.859,219.502 150.635,218.678 150.635 C 218.387 150.635,218.149 150.505,218.149 150.345 C 218.149 150.185,217.169 149.852,215.971 149.605 C 214.773 149.357,213.793 149.023,213.793 148.861 C 213.793 148.699,213.058 148.264,212.160 147.893 C 211.261 147.523,210.526 147.094,210.526 146.940 C 210.526 146.787,210.036 146.408,209.437 146.098 C 208.838 145.788,208.348 145.294,208.348 145.000 C 208.348 144.705,208.030 144.465,207.641 144.465 C 207.251 144.465,206.802 144.238,206.642 143.961 C 206.352 143.458,203.348 142.287,202.347 142.287 C 202.054 142.287,201.815 142.131,201.815 141.941 C 201.815 141.751,201.269 141.444,200.601 141.260 C 199.330 140.909,198.523 140.341,196.516 138.385 C 195.850 137.736,194.973 137.205,194.567 137.205 C 194.162 137.205,193.829 137.044,193.829 136.847 C 193.829 136.651,193.094 136.304,192.196 136.078 C 191.298 135.852,190.563 135.545,190.563 135.395 C 190.563 135.245,189.583 134.848,188.385 134.512 C 187.187 134.176,186.207 133.783,186.207 133.639 C 186.207 133.495,185.659 133.083,184.990 132.722 C 184.321 132.362,183.509 131.511,183.185 130.832 C 182.710 129.836,182.280 129.518,180.953 129.184 C 180.050 128.957,179.310 128.653,179.310 128.509 C 179.310 128.365,178.657 128.031,177.858 127.768 C 177.060 127.504,176.407 127.163,176.407 127.010 C 176.407 126.408,174.391 125.697,173.968 126.150 M189.901 148.570 C 190.165 148.832,190.891 149.271,191.515 149.546 C 192.139 149.821,192.921 150.551,193.253 151.168 C 193.864 152.302,196.415 153.539,198.143 153.539 C 198.565 153.539,198.911 153.676,198.911 153.844 C 198.911 154.012,199.809 154.350,200.907 154.596 C 202.005 154.842,202.904 155.172,202.904 155.331 C 202.904 155.489,203.660 155.907,204.584 156.260 C 205.508 156.613,206.878 157.534,207.628 158.306 C 208.382 159.084,209.496 159.812,210.122 159.937 C 210.743 160.062,211.252 160.293,211.252 160.452 C 211.252 160.611,211.783 160.844,212.432 160.971 C 215.028 161.476,217.060 162.036,217.060 162.246 C 217.060 162.368,217.672 162.687,218.421 162.955 C 219.170 163.223,219.864 163.545,219.964 163.671 C 220.064 163.797,220.594 164.186,221.143 164.536 C 221.692 164.885,222.142 165.323,222.142 165.509 C 222.142 165.992,223.649 167.424,224.796 168.029 C 225.332 168.312,225.771 168.679,225.771 168.845 C 225.771 169.011,226.159 169.147,226.633 169.147 C 228.009 169.147,230.400 170.123,231.482 171.126 C 232.030 171.635,232.583 172.051,232.711 172.051 C 232.838 172.051,233.147 172.543,233.396 173.145 C 233.661 173.785,234.365 174.483,235.095 174.830 C 236.567 175.528,239.527 178.413,240.294 179.897 C 240.591 180.473,241.049 181.112,241.310 181.317 C 241.691 181.618,241.635 181.868,241.025 182.588 C 239.148 184.804,237.817 186.066,236.825 186.569 C 236.235 186.868,235.672 187.202,235.572 187.310 C 235.472 187.419,234.658 187.744,233.762 188.033 C 232.825 188.335,231.480 189.202,230.591 190.078 C 229.743 190.915,228.686 191.714,228.243 191.855 C 227.801 191.995,227.236 192.313,226.988 192.561 C 226.740 192.809,225.793 193.231,224.884 193.500 C 223.975 193.768,223.230 194.104,223.230 194.246 C 223.230 194.388,222.303 194.696,221.169 194.932 C 220.035 195.167,218.880 195.587,218.602 195.865 C 218.324 196.143,217.904 196.372,217.669 196.374 C 217.434 196.376,216.688 196.948,216.011 197.645 C 215.334 198.341,214.558 198.911,214.287 198.911 C 214.015 198.911,213.793 199.068,213.793 199.259 C 213.793 199.451,213.099 199.813,212.250 200.063 C 211.402 200.313,210.510 200.711,210.268 200.946 C 210.025 201.181,209.005 201.570,207.999 201.812 C 206.993 202.053,206.171 202.397,206.171 202.577 C 206.171 202.757,205.752 202.904,205.239 202.904 C 204.049 202.904,202.904 203.514,202.904 204.148 C 202.904 204.419,202.659 204.735,202.359 204.850 C 202.060 204.965,201.815 205.273,201.815 205.534 C 201.815 206.556,198.603 208.711,197.079 208.711 C 196.689 208.711,196.370 208.852,196.370 209.025 C 196.370 209.197,195.377 209.549,194.162 209.807 C 192.948 210.064,191.735 210.495,191.466 210.764 C 191.197 211.032,190.856 211.252,190.708 211.252 C 190.560 211.252,190.138 211.524,189.771 211.857 C 189.123 212.442,186.235 210.383,186.213 209.321 C 186.210 209.157,185.973 208.789,185.688 208.504 C 184.468 207.284,184.353 204.453,184.490 179.073 C 184.637 152.124,184.637 152.118,186.615 150.300 C 187.289 149.680,188.080 148.931,188.373 148.634 C 189.028 147.971,189.287 147.961,189.901 148.570 "
              stroke="none" fill="#f62639" fill-rule="evenodd"></path>
    </g>
</svg>
