<svg version="1.1" width="40" viewBox="90 45 205 215"
     xmlns="http://www.w3.org/2000/svg" xmlns:xlink="http://www.w3.org/1999/xlink">
    <g>
        <path id="path0"
              d="M170.391 50.670 C 167.194 50.939,166.600 51.088,164.128 52.241 C 163.032 52.752,161.539 53.255,160.811 53.360 C 158.446 53.699,154.495 55.117,152.487 56.348 C 150.057 57.839,147.618 58.932,146.726 58.932 C 146.314 58.932,145.631 59.363,144.982 60.032 C 144.285 60.750,142.878 61.608,140.925 62.505 C 138.900 63.436,137.615 64.227,136.940 64.960 C 136.391 65.554,135.174 66.465,134.235 66.982 C 133.223 67.540,132.375 68.239,132.154 68.698 C 131.949 69.124,131.367 69.646,130.861 69.857 C 130.356 70.068,129.752 70.431,129.520 70.663 C 129.288 70.895,128.567 71.421,127.918 71.830 C 127.269 72.240,126.252 73.157,125.657 73.868 C 125.063 74.579,124.412 75.160,124.210 75.160 C 124.008 75.160,123.843 75.273,123.843 75.410 C 123.843 75.548,123.460 75.819,122.992 76.013 C 122.524 76.207,121.688 76.996,121.134 77.767 C 120.580 78.538,119.581 79.554,118.913 80.024 C 118.245 80.495,117.383 81.394,116.999 82.022 C 116.614 82.650,115.640 83.603,114.834 84.140 C 113.906 84.758,113.257 85.436,113.065 85.987 C 112.897 86.467,111.923 87.709,110.900 88.747 C 109.877 89.786,109.039 90.721,109.039 90.825 C 109.039 90.929,108.731 91.373,108.355 91.811 C 107.979 92.249,107.603 92.945,107.520 93.359 C 107.427 93.826,106.879 94.463,106.069 95.044 C 105.354 95.558,104.769 96.092,104.769 96.230 C 104.769 96.867,102.722 99.846,101.934 100.356 C 100.002 101.606,99.068 107.383,100.106 111.660 C 100.607 113.727,100.736 113.899,103.023 115.567 C 103.864 116.180,104.696 116.963,104.874 117.308 C 105.051 117.652,105.699 118.207,106.314 118.540 C 107.344 119.098,108.654 120.113,109.944 121.352 C 110.229 121.626,110.572 121.851,110.705 121.851 C 110.838 121.851,111.483 122.239,112.139 122.715 C 112.796 123.190,113.808 123.798,114.389 124.067 C 114.970 124.335,115.611 124.777,115.813 125.048 C 116.315 125.720,118.586 127.260,119.075 127.260 C 119.293 127.260,120.070 127.834,120.802 128.535 C 121.534 129.237,122.486 129.896,122.917 129.999 C 123.348 130.103,124.149 130.411,124.698 130.683 C 128.638 132.644,132.648 132.139,136.370 129.214 C 139.087 127.079,140.071 126.127,140.071 125.634 C 140.071 125.419,140.632 124.639,141.317 123.902 C 142.002 123.165,142.894 121.904,143.298 121.099 C 143.703 120.294,144.204 119.462,144.411 119.249 C 144.618 119.036,145.099 118.418,145.481 117.876 C 146.735 116.094,153.014 109.609,153.486 109.609 C 153.624 109.609,153.737 109.420,153.737 109.189 C 153.737 108.958,154.089 108.583,154.520 108.355 C 154.950 108.127,155.863 107.355,156.548 106.639 C 157.233 105.924,157.938 105.337,158.114 105.335 C 158.290 105.333,158.863 104.891,159.386 104.352 C 159.910 103.813,160.935 103.149,161.664 102.877 C 163.297 102.268,164.294 101.665,164.796 100.986 C 165.284 100.324,167.309 99.432,171.724 97.933 C 173.653 97.277,175.359 96.639,175.516 96.514 C 178.617 94.040,193.741 94.309,200.000 96.949 C 201.722 97.676,204.221 98.661,205.552 99.138 C 206.883 99.616,208.292 100.288,208.683 100.633 C 209.818 101.632,211.996 102.776,212.763 102.776 C 214.984 102.776,217.003 106.765,216.267 109.698 C 216.060 110.522,213.354 113.594,212.836 113.594 C 212.646 113.594,212.054 114.177,211.520 114.889 C 210.987 115.601,210.048 116.466,209.434 116.811 C 207.585 117.849,206.508 124.055,207.687 126.877 C 207.922 127.439,208.114 128.096,208.114 128.336 C 208.114 128.577,208.786 129.503,209.609 130.394 C 211.273 132.198,212.375 133.571,212.381 133.849 C 212.385 134.066,215.096 135.516,215.497 135.516 C 215.867 135.516,218.397 137.193,218.932 137.793 C 219.167 138.057,219.808 138.445,220.356 138.656 C 220.904 138.867,222.911 139.973,224.816 141.114 C 226.720 142.255,228.992 143.504,229.864 143.890 C 230.736 144.275,231.804 144.951,232.237 145.391 C 232.670 145.832,234.498 146.902,236.299 147.770 C 240.572 149.830,240.854 149.992,240.856 150.401 C 240.857 150.592,241.712 151.068,242.756 151.459 C 243.800 151.851,245.753 152.956,247.096 153.916 C 248.439 154.876,249.858 155.754,250.249 155.866 C 251.129 156.120,252.896 157.263,254.294 158.485 C 254.903 159.017,256.048 159.606,256.999 159.875 C 258.880 160.409,260.666 161.362,261.490 162.273 C 261.800 162.615,263.477 163.575,265.215 164.404 C 266.954 165.234,268.624 166.227,268.927 166.612 C 269.644 167.524,270.481 167.956,272.119 168.258 C 272.852 168.393,274.647 168.750,276.107 169.050 C 278.888 169.622,282.508 169.408,284.055 168.580 C 284.388 168.402,285.108 168.256,285.655 168.256 C 286.721 168.256,287.314 167.820,287.971 166.550 C 288.198 166.111,289.045 165.173,289.854 164.465 L 291.324 163.179 291.544 159.526 C 291.665 157.516,291.763 139.922,291.762 120.427 C 291.760 82.762,291.697 80.735,290.506 80.145 C 289.289 79.541,287.314 77.844,287.077 77.198 C 286.201 74.808,275.426 74.338,272.743 76.573 C 272.193 77.031,270.719 78.021,269.466 78.774 L 267.189 80.142 264.036 80.142 C 260.995 80.142,260.840 80.112,259.661 79.288 C 258.988 78.819,258.140 78.246,257.776 78.015 C 257.413 77.784,257.060 77.384,256.992 77.125 C 256.924 76.866,256.147 76.121,255.264 75.469 C 254.381 74.816,253.026 73.721,252.253 73.035 C 251.480 72.348,249.950 71.254,248.854 70.602 C 247.625 69.872,246.642 69.048,246.292 68.455 C 245.950 67.875,245.406 67.413,244.926 67.294 C 244.150 67.101,241.358 65.211,241.004 64.639 C 240.738 64.207,237.757 62.533,236.236 61.960 C 235.497 61.682,234.600 61.108,234.243 60.685 C 233.358 59.636,232.302 58.933,231.609 58.931 C 231.292 58.930,230.692 58.752,230.277 58.535 C 229.861 58.318,229.028 57.980,228.426 57.783 C 227.824 57.586,226.690 57.021,225.907 56.527 C 223.416 54.954,221.491 54.315,215.965 53.226 C 215.193 53.074,214.040 52.647,213.402 52.277 C 210.536 50.617,210.135 50.586,190.747 50.518 C 180.961 50.483,171.801 50.552,170.391 50.670 M198.968 58.642 C 200.593 58.964,202.258 59.410,202.669 59.634 C 203.480 60.076,208.309 61.037,211.957 61.483 C 214.990 61.854,215.868 62.140,217.454 63.275 C 218.329 63.902,219.752 64.498,221.579 65.003 C 223.113 65.428,224.872 66.093,225.488 66.482 C 226.104 66.870,226.739 67.189,226.898 67.189 C 227.058 67.189,227.189 67.370,227.189 67.592 C 227.189 68.108,228.671 68.984,230.320 69.444 C 232.223 69.974,233.403 70.610,234.986 71.957 C 235.768 72.623,237.251 73.677,238.281 74.299 C 239.311 74.922,240.373 75.802,240.640 76.254 C 240.936 76.756,241.687 77.319,242.562 77.695 C 243.352 78.035,244.592 78.883,245.319 79.579 C 246.046 80.275,246.856 80.913,247.118 80.997 C 247.381 81.080,248.097 81.657,248.709 82.278 C 249.321 82.899,249.948 83.409,250.102 83.412 C 250.255 83.414,251.030 84.089,251.823 84.911 C 252.615 85.733,253.579 86.669,253.963 86.991 C 254.347 87.313,255.523 88.498,256.576 89.624 C 257.702 90.830,258.721 91.673,259.053 91.673 C 259.362 91.673,259.718 91.849,259.844 92.065 C 259.969 92.281,260.508 92.721,261.042 93.044 L 262.013 93.630 263.249 92.780 C 263.929 92.312,264.837 91.775,265.267 91.586 C 266.908 90.866,270.991 88.506,271.355 88.068 C 271.938 87.365,273.803 86.263,274.408 86.263 C 274.705 86.263,275.752 85.961,276.734 85.592 C 279.211 84.661,282.015 85.507,283.290 87.570 L 283.905 88.565 283.874 122.019 C 283.842 157.096,283.859 156.580,282.721 157.438 C 282.617 157.516,282.182 158.047,281.754 158.617 C 280.370 160.461,277.979 160.783,275.852 159.412 C 275.471 159.166,274.263 158.610,273.167 158.175 C 269.594 156.758,268.788 156.330,268.307 155.595 C 267.882 154.947,262.474 152.028,261.697 152.028 C 261.541 152.028,261.015 151.657,260.528 151.202 C 259.456 150.201,257.774 149.181,257.194 149.181 C 256.574 149.181,255.112 148.377,253.808 147.319 C 253.181 146.811,252.477 146.349,252.242 146.292 C 251.241 146.049,246.509 143.432,246.357 143.037 C 246.167 142.541,243.113 140.927,242.357 140.923 C 242.078 140.921,241.030 140.377,240.026 139.713 C 239.023 139.049,237.806 138.261,237.322 137.963 C 236.837 137.664,235.779 136.991,234.970 136.468 C 234.160 135.944,233.360 135.516,233.191 135.516 C 233.022 135.516,232.103 134.941,231.149 134.239 C 230.195 133.536,228.946 132.833,228.373 132.677 C 227.800 132.520,226.690 131.903,225.906 131.306 C 225.123 130.710,224.226 130.126,223.913 130.010 C 222.337 129.423,219.026 127.154,218.728 126.457 C 217.498 123.573,218.199 120.223,220.312 118.889 C 220.908 118.513,221.792 117.808,222.277 117.323 C 222.762 116.838,223.359 116.441,223.603 116.441 C 224.018 116.441,229.723 113.646,230.036 113.290 C 230.114 113.200,230.947 112.567,231.886 111.882 C 234.781 109.772,234.799 109.692,232.915 107.343 C 231.585 105.686,231.052 105.216,228.470 103.426 C 227.843 102.991,227.163 102.410,226.958 102.135 C 226.336 101.299,224.788 99.932,224.464 99.930 C 223.987 99.928,221.779 97.936,221.779 97.507 C 221.779 97.296,221.068 96.856,220.198 96.531 C 218.059 95.731,215.007 94.060,213.883 93.074 C 213.052 92.346,212.387 92.081,210.107 91.570 C 209.715 91.483,208.610 90.839,207.650 90.140 C 205.647 88.681,205.301 88.569,199.146 87.380 C 190.990 85.805,181.339 85.467,179.366 86.686 C 179.261 86.751,177.350 87.135,175.120 87.539 C 170.119 88.445,168.019 88.982,167.429 89.505 C 166.594 90.246,163.967 91.673,163.438 91.673 C 162.674 91.673,159.883 93.008,159.299 93.653 C 158.778 94.230,155.153 96.512,154.760 96.512 C 154.636 96.512,153.697 97.281,152.672 98.221 C 151.646 99.160,150.693 99.929,150.552 99.929 C 150.051 99.929,148.545 101.222,148.298 101.865 C 148.159 102.225,147.674 102.649,147.220 102.807 C 146.766 102.966,145.839 103.760,145.160 104.573 C 144.481 105.385,143.090 106.979,142.069 108.114 C 138.321 112.283,137.751 112.998,137.035 114.435 C 136.633 115.242,136.001 116.101,135.630 116.343 C 135.260 116.586,134.675 117.252,134.331 117.823 C 132.547 120.780,131.141 121.827,128.932 121.840 C 126.261 121.857,125.692 121.618,123.194 119.428 C 121.897 118.292,119.988 116.948,118.951 116.443 C 117.914 115.937,116.462 115.025,115.726 114.416 C 114.989 113.808,114.287 113.310,114.165 113.310 C 113.829 113.310,111.144 110.685,110.816 110.036 C 109.602 107.635,110.217 104.304,112.297 102.019 C 113.979 100.172,115.587 98.104,115.587 97.789 C 115.587 97.624,116.303 96.789,117.178 95.933 C 118.052 95.077,119.141 93.842,119.597 93.188 C 120.053 92.534,121.195 91.265,122.135 90.369 C 123.074 89.472,123.843 88.576,123.843 88.376 C 123.843 87.980,125.787 86.270,126.257 86.253 C 126.417 86.247,126.996 85.667,127.544 84.965 C 128.093 84.263,128.989 83.382,129.537 83.008 C 130.085 82.633,131.477 81.418,132.631 80.307 C 133.784 79.196,135.129 78.095,135.620 77.860 C 136.111 77.625,137.345 76.650,138.363 75.693 C 139.381 74.736,140.741 73.714,141.385 73.422 C 142.030 73.129,143.226 72.251,144.045 71.471 C 145.062 70.501,145.862 69.994,146.574 69.869 C 147.147 69.769,147.872 69.529,148.185 69.335 C 148.498 69.141,149.235 68.826,149.822 68.633 C 150.409 68.441,150.890 68.110,150.890 67.899 C 150.890 67.166,156.803 64.342,158.338 64.342 C 158.639 64.342,159.168 64.074,159.514 63.747 C 160.651 62.672,162.819 61.769,164.917 61.498 C 169.237 60.940,173.858 60.045,175.089 59.528 C 179.247 57.782,192.201 57.301,198.968 58.642 M100.273 134.718 C 99.758 135.037,98.819 135.413,98.186 135.556 C 96.384 135.960,93.241 138.661,92.222 140.681 L 91.388 142.333 91.404 181.558 C 91.421 225.109,91.278 221.866,93.291 224.147 C 94.308 225.299,95.297 225.872,99.551 227.775 C 101.921 228.836,108.243 227.989,110.320 226.332 C 110.477 226.208,111.140 225.962,111.795 225.787 C 112.449 225.613,113.526 225.017,114.188 224.464 C 116.890 222.206,121.406 222.115,123.307 224.280 C 123.786 224.826,124.903 225.757,125.790 226.349 C 126.677 226.941,127.979 227.991,128.683 228.682 C 129.388 229.372,130.541 230.274,131.246 230.684 C 131.950 231.095,133.013 232.014,133.608 232.726 C 134.226 233.466,134.933 234.021,135.256 234.021 C 135.567 234.021,136.362 234.570,137.021 235.240 C 138.247 236.485,142.260 239.191,143.420 239.554 C 143.775 239.665,144.640 240.324,145.344 241.017 C 146.047 241.710,146.877 242.278,147.187 242.278 C 147.498 242.278,148.554 242.825,149.535 243.495 C 152.031 245.200,157.109 247.682,158.111 247.686 C 158.246 247.686,159.271 248.256,160.388 248.951 C 162.107 250.021,162.771 250.261,164.698 250.509 C 166.922 250.796,169.045 251.294,175.617 253.075 L 178.849 253.950 194.317 253.950 C 205.211 253.950,210.022 253.854,210.586 253.626 C 211.027 253.448,211.900 253.201,212.527 253.077 C 213.153 252.953,215.649 252.330,218.074 251.693 C 220.498 251.055,222.945 250.534,223.512 250.534 C 224.897 250.534,226.270 250.030,227.473 249.080 C 228.021 248.647,229.687 247.769,231.174 247.130 C 232.662 246.490,234.520 245.541,235.302 245.021 C 238.681 242.776,239.565 242.278,240.168 242.278 C 240.520 242.278,241.491 241.694,242.326 240.980 C 243.160 240.266,244.356 239.443,244.982 239.151 C 245.609 238.858,246.954 237.904,247.972 237.030 C 248.989 236.156,250.398 235.025,251.102 234.518 C 251.806 234.010,252.959 233.053,253.664 232.391 C 254.369 231.728,255.587 230.706,256.370 230.118 C 257.153 229.530,258.506 228.310,259.377 227.407 C 260.248 226.504,261.175 225.765,261.437 225.765 C 261.699 225.765,262.234 225.285,262.626 224.698 C 263.018 224.110,264.040 223.055,264.897 222.352 C 265.755 221.649,266.939 220.328,267.529 219.416 C 268.167 218.430,268.972 217.582,269.513 217.325 C 270.038 217.076,270.541 216.555,270.702 216.094 C 270.855 215.654,271.729 214.535,272.643 213.608 C 273.558 212.681,274.819 211.163,275.445 210.234 C 276.071 209.306,277.096 208.028,277.722 207.395 C 278.349 206.762,279.027 205.878,279.229 205.431 C 279.816 204.134,282.099 200.712,282.377 200.712 C 283.415 200.712,283.179 192.130,282.120 191.388 C 281.815 191.175,281.566 190.815,281.566 190.589 C 281.566 190.363,281.461 190.178,281.334 190.178 C 281.206 190.178,280.796 189.633,280.422 188.968 C 279.687 187.659,279.196 187.180,277.428 186.041 C 276.796 185.635,276.028 184.925,275.720 184.464 C 275.391 183.972,274.322 183.205,273.127 182.606 C 272.009 182.045,270.676 181.154,270.164 180.627 C 269.653 180.099,268.565 179.340,267.747 178.939 C 266.112 178.140,264.590 177.038,263.060 175.548 C 262.512 175.014,261.552 174.420,260.925 174.228 C 260.299 174.036,258.537 173.242,257.009 172.464 C 253.325 170.587,250.970 170.746,248.582 173.035 C 248.057 173.538,247.468 173.950,247.273 173.950 C 246.152 173.950,243.701 176.067,243.701 177.036 C 243.701 177.216,243.060 178.018,242.278 178.817 C 241.495 179.617,240.854 180.449,240.854 180.666 C 240.854 180.884,240.209 181.800,239.420 182.702 C 238.631 183.604,237.818 184.534,237.614 184.769 C 237.410 185.004,236.695 186.028,236.025 187.046 C 235.355 188.064,234.278 189.423,233.631 190.067 C 232.985 190.711,231.834 191.892,231.075 192.692 C 230.315 193.493,229.107 194.537,228.389 195.012 C 227.671 195.487,226.499 196.423,225.784 197.092 C 225.069 197.760,223.779 198.744,222.918 199.278 C 222.057 199.812,220.712 200.783,219.929 201.436 C 218.362 202.743,216.390 203.841,215.599 203.848 C 215.068 203.852,214.902 203.934,212.189 205.528 C 211.279 206.063,210.021 206.610,209.395 206.743 C 196.668 209.451,183.645 208.601,177.936 204.690 C 177.544 204.421,176.503 203.994,175.622 203.740 C 174.742 203.486,173.367 202.829,172.569 202.280 C 171.770 201.731,171.035 201.281,170.934 201.281 C 170.834 201.281,170.330 200.929,169.816 200.498 C 169.301 200.068,168.341 199.331,167.682 198.861 C 167.022 198.391,166.184 197.572,165.820 197.039 L 165.156 196.071 165.743 194.904 C 166.066 194.262,166.518 193.523,166.747 193.261 C 166.977 192.999,167.382 192.381,167.647 191.886 C 167.912 191.391,168.506 190.773,168.967 190.511 C 169.428 190.250,169.978 189.875,170.190 189.680 C 170.401 189.484,170.734 189.324,170.928 189.324 C 171.370 189.324,172.465 188.130,173.468 186.555 C 173.889 185.893,174.554 185.142,174.946 184.885 C 175.657 184.419,175.658 184.410,175.641 179.967 L 175.624 175.516 174.431 174.651 C 173.761 174.165,172.987 173.256,172.665 172.577 C 172.234 171.672,171.629 171.078,170.249 170.205 C 169.236 169.564,167.933 168.640,167.354 168.150 C 166.396 167.340,165.515 166.847,162.149 165.236 C 161.530 164.940,160.620 164.296,160.127 163.805 C 159.633 163.314,158.923 162.817,158.547 162.702 C 157.089 162.253,152.416 159.673,151.670 158.905 C 151.238 158.460,150.341 157.925,149.677 157.716 C 147.880 157.149,145.981 156.157,145.344 155.452 C 145.034 155.109,144.393 154.649,143.920 154.431 C 143.447 154.212,142.868 153.905,142.633 153.749 C 142.399 153.593,141.758 153.271,141.210 153.032 C 140.195 152.591,139.750 152.320,137.326 150.665 C 136.572 150.150,135.290 149.535,134.477 149.299 C 133.027 148.878,130.391 147.140,130.391 146.606 C 130.391 146.457,130.212 146.335,129.992 146.335 C 129.772 146.335,128.843 145.913,127.928 145.398 C 127.012 144.883,125.815 144.283,125.267 144.065 C 124.719 143.847,123.851 143.309,123.337 142.868 C 122.247 141.933,120.364 140.925,119.706 140.925 C 119.202 140.925,116.913 139.686,116.014 138.926 C 114.879 137.965,109.721 135.516,108.834 135.516 C 108.516 135.516,107.532 135.196,106.647 134.804 C 104.562 133.882,101.689 133.844,100.273 134.718 M106.224 143.740 C 106.790 143.872,107.943 144.491,108.786 145.116 C 109.630 145.741,111.717 146.926,113.425 147.749 C 115.133 148.571,116.858 149.572,117.258 149.972 C 117.659 150.373,119.125 151.187,120.517 151.782 C 122.001 152.417,123.545 153.323,124.252 153.974 C 124.914 154.584,126.200 155.362,127.110 155.702 C 128.020 156.043,129.083 156.572,129.474 156.879 C 129.864 157.187,130.358 157.438,130.572 157.438 C 130.785 157.438,131.483 157.945,132.121 158.564 C 132.759 159.184,133.560 159.765,133.901 159.855 C 135.985 160.410,136.717 160.741,137.657 161.553 C 138.236 162.053,140.164 163.203,141.942 164.108 C 144.381 165.349,145.307 165.978,145.717 166.672 C 146.130 167.373,146.590 167.681,147.649 167.969 C 149.491 168.469,151.623 169.536,153.025 170.660 C 153.651 171.162,155.436 172.184,156.992 172.931 C 158.548 173.678,160.405 174.776,161.120 175.370 C 161.835 175.964,162.706 176.536,163.056 176.641 C 163.840 176.877,165.694 179.089,165.694 179.788 C 165.694 181.154,163.482 184.769,162.646 184.769 C 162.434 184.769,162.188 184.956,162.100 185.185 C 162.012 185.414,161.279 185.852,160.472 186.157 C 157.973 187.103,156.780 187.721,155.294 188.842 C 154.506 189.436,152.904 190.334,151.735 190.837 L 149.609 191.752 149.524 193.856 C 149.430 196.187,150.085 197.283,152.161 198.268 C 152.654 198.502,153.242 199.051,153.468 199.489 C 153.949 200.419,154.857 201.258,155.398 201.272 C 155.608 201.277,156.455 201.974,157.282 202.821 C 158.714 204.288,162.239 206.690,162.960 206.690 C 163.146 206.690,164.056 207.331,164.982 208.114 C 165.908 208.897,166.818 209.537,167.004 209.537 C 167.191 209.537,169.374 210.544,171.857 211.775 C 176.319 213.987,177.181 214.327,181.352 215.521 C 182.527 215.857,184.320 216.384,185.338 216.693 C 187.847 217.453,194.493 217.824,199.669 217.493 C 203.935 217.220,204.099 217.189,208.516 215.821 C 210.068 215.340,211.670 214.947,212.075 214.946 C 213.061 214.946,218.445 212.925,218.932 212.371 C 219.011 212.282,219.482 212.045,219.981 211.843 C 220.479 211.642,221.299 211.173,221.804 210.800 C 222.309 210.428,223.326 209.922,224.065 209.677 C 224.934 209.388,225.829 208.782,226.599 207.961 C 227.254 207.262,228.016 206.690,228.294 206.690 C 229.580 206.690,234.709 202.137,240.524 195.832 C 245.149 190.818,245.887 189.882,247.182 187.387 C 247.808 186.182,248.498 185.053,248.715 184.880 C 248.933 184.706,249.110 184.429,249.110 184.263 C 249.110 184.098,249.783 183.536,250.605 183.014 C 252.822 181.605,255.235 181.634,257.404 183.095 C 258.245 183.661,259.829 184.716,260.925 185.439 C 262.021 186.163,263.495 187.202,264.199 187.750 C 264.904 188.297,266.249 189.116,267.189 189.571 C 269.064 190.477,271.662 192.979,272.718 194.895 L 273.356 196.053 272.484 198.311 C 272.004 199.553,271.321 200.894,270.966 201.291 C 269.656 202.754,268.547 204.300,268.041 205.369 C 267.712 206.064,267.229 206.570,266.728 206.745 C 266.267 206.905,265.639 207.519,265.230 208.208 C 264.842 208.861,263.806 210.100,262.928 210.961 C 262.050 211.822,261.133 212.893,260.891 213.341 C 260.301 214.434,254.350 220.356,253.843 220.356 C 253.623 220.356,252.960 220.987,252.372 221.759 C 251.783 222.531,251.019 223.234,250.673 223.320 C 250.328 223.407,249.212 224.303,248.193 225.312 C 247.175 226.321,245.651 227.589,244.808 228.130 C 243.964 228.671,243.024 229.391,242.719 229.731 C 242.414 230.070,241.389 230.812,240.442 231.380 C 239.494 231.948,238.252 232.774,237.681 233.217 C 237.111 233.659,236.543 234.021,236.419 234.021 C 236.295 234.021,235.929 234.266,235.606 234.565 C 235.282 234.864,233.960 235.646,232.667 236.304 C 231.374 236.962,230.243 237.616,230.155 237.759 C 229.929 238.125,227.294 239.431,226.781 239.431 C 226.088 239.431,223.774 240.271,221.637 241.299 C 214.926 244.527,195.994 247.192,188.470 245.967 C 187.609 245.827,185.751 245.574,184.342 245.405 C 177.072 244.533,170.152 242.988,166.833 241.497 C 163.440 239.972,162.829 239.752,161.065 239.417 C 160.319 239.275,158.974 238.682,158.075 238.098 C 157.177 237.514,155.814 236.740,155.046 236.376 C 153.420 235.607,149.246 233.123,147.644 231.972 C 147.033 231.533,146.386 231.174,146.205 231.174 C 146.025 231.174,145.435 230.710,144.896 230.142 C 144.356 229.575,143.244 228.676,142.425 228.144 C 141.606 227.613,139.821 226.284,138.459 225.190 C 137.096 224.097,135.845 223.203,135.678 223.203 C 135.510 223.203,134.822 222.562,134.148 221.779 C 133.474 220.996,132.789 220.356,132.626 220.356 C 132.356 220.356,127.476 215.560,125.869 213.716 C 125.496 213.287,124.432 212.359,123.504 211.654 L 121.819 210.372 119.201 211.401 C 117.762 211.967,116.199 212.785,115.730 213.218 C 115.260 213.651,113.745 214.607,112.363 215.343 C 110.981 216.079,109.242 217.109,108.498 217.631 C 106.244 219.216,105.433 219.544,104.263 219.344 C 101.506 218.874,100.100 217.939,99.603 216.247 C 99.301 215.222,99.248 147.818,99.548 147.015 C 100.167 145.353,101.676 144.148,103.630 143.754 C 105.023 143.473,105.074 143.473,106.224 143.740 "
              stroke="none" fill="#f72f40" fill-rule="evenodd"></path>
    </g>
</svg>
