<svg version="1.1" width="40" viewBox="75 45 250 250"
     xmlns="http://www.w3.org/2000/svg" xmlns:xlink="http://www.w3.org/1999/xlink">
    <g>
        <path id="path0"
              d="M197.500 50.523 C 193.269 51.193,193.212 51.227,191.422 54.200 C 191.036 54.840,190.197 55.677,189.557 56.060 C 187.172 57.488,186.515 58.239,185.719 60.449 C 184.814 62.963,184.224 63.760,182.679 64.551 C 182.090 64.853,181.125 65.482,180.536 65.948 C 179.946 66.415,179.304 66.923,179.107 67.077 C 178.911 67.231,178.429 67.510,178.036 67.697 C 177.610 67.899,164.259 68.108,145.000 68.215 C 109.888 68.410,109.745 68.418,107.696 70.467 C 107.070 71.093,106.901 75.000,107.500 75.000 C 107.737 75.000,107.857 101.131,107.857 152.679 C 107.857 204.226,107.737 230.357,107.500 230.357 C 107.304 230.357,107.143 230.759,107.143 231.250 C 107.143 231.741,107.304 232.143,107.500 232.143 C 107.732 232.143,107.857 237.262,107.857 246.786 C 107.857 256.310,107.732 261.429,107.500 261.429 C 107.304 261.429,107.143 261.830,107.143 262.321 C 107.143 262.813,107.304 263.214,107.500 263.214 C 107.724 263.214,107.857 265.536,107.857 269.464 C 107.857 273.393,107.724 275.714,107.500 275.714 C 107.290 275.714,107.143 276.964,107.143 278.750 C 107.143 280.536,107.290 281.786,107.500 281.786 C 107.696 281.786,107.857 282.639,107.857 283.682 C 107.857 288.238,99.151 287.857,203.282 287.857 C 289.929 287.857,297.999 287.765,299.072 286.764 C 299.500 286.364,299.498 70.667,299.070 69.929 C 298.201 68.429,293.786 68.231,261.219 68.224 C 231.100 68.218,228.214 68.120,228.214 67.108 C 228.214 66.931,227.979 66.786,227.691 66.786 C 227.403 66.786,226.640 66.339,225.995 65.793 C 225.349 65.247,224.130 64.336,223.285 63.767 C 222.176 63.022,221.456 62.129,220.699 60.563 C 219.691 58.476,217.959 56.429,217.201 56.429 C 216.765 56.429,214.644 53.919,214.641 53.401 C 214.628 50.707,205.752 49.217,197.500 50.523 M208.077 64.705 C 209.163 65.525,210.555 66.931,211.171 67.830 C 211.787 68.729,212.634 69.737,213.054 70.071 C 213.588 70.497,214.065 71.707,214.645 74.114 C 215.457 77.489,216.381 79.286,217.304 79.286 C 217.560 79.286,217.957 79.511,218.186 79.787 C 218.519 80.188,220.495 80.313,228.085 80.412 L 237.568 80.536 238.460 81.607 C 241.984 85.842,242.727 98.102,239.628 100.906 C 239.243 101.254,238.929 101.731,238.929 101.964 C 238.929 104.095,236.376 104.262,203.692 104.275 C 170.536 104.287,170.585 104.291,168.042 101.704 C 165.378 98.993,164.893 97.115,165.334 91.223 C 166.064 81.464,167.653 80.380,181.250 80.363 L 188.036 80.354 189.491 79.373 C 192.629 77.259,192.678 77.187,193.163 73.997 C 193.475 71.950,193.941 70.477,194.665 69.249 C 195.242 68.270,195.714 67.328,195.714 67.157 C 195.714 66.001,200.255 63.767,203.036 63.554 C 204.607 63.434,205.940 63.308,205.997 63.275 C 206.055 63.241,206.991 63.885,208.077 64.705 M146.664 80.982 C 148.375 81.785,150.012 83.332,151.296 85.357 C 151.856 86.241,152.410 87.045,152.527 87.143 C 153.470 87.934,153.724 99.655,153.060 111.654 L 152.919 114.200 154.843 115.142 L 156.767 116.084 204.187 115.985 C 249.783 115.889,251.688 115.859,253.706 115.201 L 255.804 114.518 255.585 109.134 C 254.850 91.065,255.307 85.711,257.807 83.154 C 258.424 82.523,258.929 81.895,258.929 81.759 C 258.929 80.655,261.470 80.357,270.874 80.357 L 280.390 80.357 281.282 81.250 C 281.774 81.741,282.322 82.143,282.501 82.143 C 282.972 82.143,284.663 85.149,285.068 86.707 C 285.589 88.710,285.814 267.661,285.298 269.286 C 284.669 271.264,283.662 272.426,281.901 273.206 C 280.276 273.924,279.799 273.929,203.151 273.929 C 119.032 273.929,125.134 274.084,123.184 271.891 C 121.344 269.822,121.429 274.284,121.429 178.941 C 121.429 91.910,121.497 85.684,122.465 85.000 C 122.603 84.902,123.083 84.098,123.530 83.214 C 125.011 80.286,124.639 80.374,135.613 80.365 C 144.136 80.358,145.497 80.434,146.664 80.982 M257.977 145.098 L 255.419 145.449 254.831 146.990 C 254.507 147.838,253.636 149.143,252.895 149.891 C 252.154 150.638,251.395 151.530,251.207 151.873 C 251.020 152.216,249.956 153.266,248.843 154.207 C 247.730 155.149,246.332 156.590,245.738 157.411 C 244.479 159.149,243.448 159.746,240.625 160.372 C 239.496 160.623,238.571 160.963,238.571 161.128 C 238.571 161.591,236.826 161.484,236.188 160.982 C 235.277 160.266,233.125 158.090,231.964 156.710 C 230.435 154.893,225.245 154.366,223.736 155.874 C 223.235 156.376,222.675 156.786,222.493 156.786 C 222.310 156.786,221.932 157.228,221.651 157.768 C 221.371 158.308,220.626 159.393,219.996 160.179 C 217.941 162.744,217.833 164.067,219.644 164.465 C 220.202 164.587,221.081 165.079,221.597 165.558 C 222.114 166.037,222.636 166.429,222.758 166.429 C 222.879 166.429,223.805 167.272,224.814 168.304 C 225.824 169.335,227.173 170.658,227.813 171.243 C 228.452 171.829,229.470 173.238,230.076 174.375 C 230.803 175.739,231.461 176.513,232.009 176.650 C 233.132 176.932,235.332 179.427,235.588 180.710 C 236.053 183.032,239.175 183.419,239.997 181.257 C 240.307 180.444,242.118 178.929,242.781 178.929 C 243.187 178.929,244.925 176.729,245.745 175.179 C 246.056 174.589,247.130 173.545,248.133 172.857 C 249.135 172.170,250.444 170.986,251.042 170.228 C 251.639 169.469,252.891 168.264,253.823 167.549 C 254.756 166.835,255.891 165.817,256.346 165.287 C 256.802 164.757,257.451 164.236,257.790 164.129 C 258.128 164.021,258.796 163.217,259.274 162.343 C 259.752 161.468,260.896 160.177,261.817 159.475 C 262.738 158.773,263.644 157.760,263.831 157.224 C 264.018 156.688,264.579 155.037,265.078 153.553 L 265.987 150.857 264.690 149.420 C 262.652 147.162,262.266 146.611,262.011 145.594 C 261.749 144.551,261.861 144.565,257.977 145.098 M146.922 157.890 C 143.990 158.802,142.991 162.562,144.104 168.498 C 144.485 170.534,144.098 170.502,169.821 170.645 C 201.019 170.819,200.264 170.968,200.443 164.598 C 200.521 161.826,199.813 160.615,196.839 158.432 L 195.083 157.143 172.095 157.176 C 150.552 157.208,148.970 157.252,146.922 157.890 M253.699 211.894 C 252.879 212.329,251.932 213.208,251.575 213.866 C 250.661 215.550,249.086 216.990,247.180 217.886 C 246.276 218.311,245.063 219.029,244.484 219.482 L 243.432 220.306 242.344 219.528 C 240.587 218.271,237.443 216.429,237.056 216.429 C 236.859 216.429,235.794 215.504,234.689 214.375 C 231.304 210.917,230.401 210.914,228.595 214.355 C 228.048 215.398,227.156 216.372,226.186 216.985 C 224.014 218.358,223.824 218.658,224.354 219.871 C 224.839 220.980,226.842 224.136,227.609 225.000 C 231.835 229.754,231.526 235.629,226.827 239.887 C 224.532 241.967,223.571 242.974,223.571 243.301 C 223.571 243.921,225.177 245.955,226.462 246.964 C 227.213 247.554,227.916 248.277,228.024 248.571 C 229.077 251.443,232.153 252.439,234.066 250.526 C 234.355 250.237,234.791 250.000,235.035 250.000 C 235.279 250.000,236.574 248.860,237.914 247.466 C 241.319 243.923,244.891 243.128,246.642 245.523 C 246.862 245.825,247.218 246.071,247.433 246.071 C 247.647 246.071,248.302 246.768,248.888 247.620 C 250.112 249.398,251.252 250.347,253.693 251.616 L 255.422 252.514 256.603 251.525 C 257.253 250.981,258.195 249.813,258.696 248.929 C 259.198 248.045,260.405 246.455,261.380 245.396 C 262.934 243.709,263.399 242.500,262.494 242.500 C 261.941 242.500,258.616 238.826,258.170 237.722 C 257.922 237.109,257.614 236.527,257.485 236.429 C 256.117 235.383,256.090 227.500,257.454 227.500 C 257.594 227.500,258.167 226.576,258.729 225.446 C 259.291 224.317,260.304 222.482,260.980 221.368 C 262.277 219.230,262.318 218.074,261.110 217.691 C 260.184 217.397,259.161 216.126,258.370 214.286 C 257.073 211.270,255.955 210.698,253.699 211.894 M149.107 222.211 C 143.811 222.864,143.571 223.117,143.571 228.052 C 143.571 234.069,141.389 233.603,170.536 233.810 C 200.028 234.020,200.755 233.900,200.672 228.831 C 200.597 224.271,200.611 224.293,197.078 222.990 L 193.980 221.847 172.615 221.897 C 160.864 221.925,150.286 222.066,149.107 222.211 "
              stroke="none" fill="#f62437" fill-rule="evenodd"></path>
    </g>
</svg>
