<svg version="1.1" width="40" viewBox="30 40 350 350"
     xmlns="http://www.w3.org/2000/svg" xmlns:xlink="http://www.w3.org/1999/xlink">
    <g>
        <path id="path0"
              d="M291.201 70.486 C 289.154 71.089,288.247 71.556,288.041 72.113 C 287.785 72.804,286.343 74.231,283.332 76.774 C 282.825 77.202,281.909 78.223,281.296 79.042 C 280.684 79.862,279.372 81.118,278.381 81.834 C 277.390 82.550,276.144 83.847,275.613 84.716 C 275.081 85.586,274.469 86.301,274.252 86.305 C 273.304 86.323,270.165 88.675,270.165 89.368 C 270.165 89.773,269.509 90.666,268.707 91.353 C 267.906 92.040,265.644 94.157,263.681 96.058 C 261.718 97.959,259.871 99.514,259.575 99.514 C 259.033 99.514,257.674 101.126,257.249 102.273 C 257.122 102.615,256.259 103.252,255.331 103.688 C 254.403 104.125,253.067 105.202,252.361 106.082 C 251.655 106.962,250.430 108.041,249.640 108.480 C 248.849 108.918,246.979 109.975,245.484 110.829 C 243.989 111.682,242.065 112.562,241.208 112.783 C 236.718 113.945,234.528 114.308,229.783 114.676 C 217.846 115.604,210.755 117.098,208.518 119.158 C 207.983 119.651,205.125 121.067,203.379 121.704 C 202.673 121.962,201.236 123.000,200.187 124.011 L 198.281 125.848 194.864 126.031 C 190.720 126.252,189.530 125.960,187.498 124.221 C 186.636 123.483,185.128 122.452,184.146 121.930 C 183.164 121.408,181.869 120.642,181.268 120.228 C 179.181 118.791,175.342 117.007,174.338 117.007 C 172.789 117.007,165.631 115.456,163.557 114.671 C 160.554 113.534,154.739 108.640,152.390 105.274 C 151.861 104.515,150.974 103.723,150.419 103.513 C 149.864 103.304,148.898 102.340,148.272 101.372 C 147.645 100.403,146.215 98.966,145.092 98.179 C 143.970 97.391,143.052 96.499,143.052 96.196 C 143.052 95.565,134.044 86.297,133.430 86.297 C 132.916 86.297,130.685 83.772,130.137 82.569 C 129.867 81.977,129.066 81.440,127.851 81.036 C 126.822 80.694,125.325 80.096,124.524 79.706 C 122.998 78.964,122.238 79.164,120.585 80.743 C 120.308 81.007,119.396 81.408,118.557 81.634 C 117.379 81.951,116.883 82.358,116.378 83.424 C 116.018 84.182,115.103 85.270,114.345 85.842 C 112.864 86.958,111.564 88.216,108.917 91.096 C 107.996 92.098,106.797 93.210,106.253 93.566 C 105.709 93.923,104.604 95.108,103.797 96.201 C 102.893 97.424,101.731 98.457,100.771 98.890 C 99.617 99.410,99.063 99.974,98.637 101.059 C 98.252 102.038,97.334 103.061,95.872 104.141 C 94.668 105.031,93.683 105.956,93.683 106.198 C 93.683 106.439,92.139 108.139,90.251 109.975 C 88.363 111.812,86.501 113.802,86.114 114.399 C 85.727 114.996,84.677 115.913,83.782 116.437 C 82.887 116.962,81.914 117.873,81.619 118.462 C 80.809 120.082,80.051 120.870,78.681 121.520 C 77.997 121.845,76.955 122.875,76.364 123.809 C 75.774 124.743,74.463 126.044,73.451 126.699 C 72.440 127.355,70.762 129.010,69.722 130.378 C 68.683 131.746,67.361 133.151,66.783 133.499 C 66.206 133.847,64.974 135.133,64.046 136.356 C 63.082 137.627,61.740 138.874,60.916 139.264 C 60.124 139.640,59.475 140.215,59.475 140.542 C 59.475 141.594,58.294 142.980,56.318 144.248 C 55.257 144.929,54.151 145.946,53.860 146.508 C 53.319 147.556,49.568 151.215,49.036 151.215 C 48.873 151.215,48.225 151.928,47.596 152.801 C 45.965 155.063,45.075 155.895,43.615 156.522 C 42.693 156.917,42.122 157.562,41.587 158.810 C 41.047 160.070,40.361 160.838,39.091 161.606 C 38.128 162.187,37.154 163.105,36.928 163.645 C 36.702 164.184,35.709 165.490,34.722 166.545 C 31.370 170.129,31.332 173.208,34.597 176.770 C 35.879 178.170,36.929 179.538,36.929 179.811 C 36.929 180.083,37.498 180.670,38.192 181.114 C 40.107 182.339,41.594 183.767,41.594 184.380 C 41.594 185.334,43.120 186.917,44.533 187.428 C 45.582 187.807,46.131 188.388,46.926 189.959 C 47.597 191.284,48.338 192.154,49.042 192.446 C 49.638 192.693,50.787 193.648,51.594 194.568 C 54.279 197.629,55.074 198.434,56.863 199.904 C 57.924 200.776,58.822 201.918,59.094 202.744 C 59.449 203.819,59.949 204.314,61.355 204.982 C 62.786 205.661,63.342 206.221,64.036 207.683 C 64.709 209.101,65.251 209.664,66.379 210.115 C 67.422 210.532,68.292 211.364,69.394 212.996 C 70.246 214.258,71.385 215.555,71.926 215.877 C 73.186 216.629,75.200 218.686,76.301 220.347 C 76.775 221.062,77.862 222.024,78.717 222.485 C 80.553 223.475,81.108 224.112,81.399 225.563 C 81.540 226.262,81.991 226.787,82.693 227.069 C 85.133 228.049,85.626 228.420,86.524 229.952 C 88.626 233.539,87.412 239.621,84.151 241.839 C 81.889 243.377,81.531 244.759,81.340 252.672 C 81.146 260.733,81.544 262.292,84.748 266.026 C 85.821 267.276,87.143 269.056,87.684 269.981 C 88.765 271.824,91.292 272.970,98.533 274.898 C 100.623 275.455,103.145 277.632,103.519 279.203 C 104.064 281.491,105.676 285.028,106.624 286.018 C 107.203 286.623,107.677 287.352,107.677 287.639 C 107.677 287.926,108.262 289.053,108.976 290.144 C 109.690 291.236,110.606 292.703,111.011 293.405 C 111.483 294.223,112.449 295.008,113.697 295.588 C 114.769 296.086,116.067 296.867,116.580 297.324 C 117.094 297.780,117.891 298.154,118.351 298.154 C 118.811 298.154,119.965 298.643,120.915 299.240 C 121.866 299.838,123.199 300.554,123.879 300.831 C 124.558 301.108,125.209 301.581,125.324 301.882 C 125.440 302.183,125.794 302.430,126.112 302.430 C 126.678 302.430,128.798 305.552,130.073 308.260 C 130.425 309.009,131.477 311.224,132.412 313.183 C 133.346 315.142,134.113 316.891,134.116 317.070 C 134.122 317.389,135.671 318.361,140.519 321.088 C 141.849 321.837,143.532 322.844,144.258 323.327 C 144.984 323.810,146.160 324.368,146.870 324.567 C 148.335 324.977,151.438 327.205,151.770 328.086 C 151.891 328.406,152.425 329.259,152.957 329.980 C 153.489 330.702,154.573 333.300,155.366 335.754 L 156.809 340.215 159.695 342.216 C 161.282 343.317,163.022 344.510,163.562 344.868 C 164.101 345.226,164.649 345.684,164.779 345.886 C 166.716 348.902,180.954 348.243,185.575 344.923 C 188.716 342.666,189.810 342.355,194.323 342.432 C 198.765 342.508,199.280 342.682,201.555 344.872 C 202.410 345.695,203.547 346.463,204.082 346.578 C 204.616 346.693,206.027 347.040,207.217 347.349 C 212.193 348.641,220.741 347.587,223.182 345.382 C 223.961 344.679,224.951 343.991,225.383 343.854 C 225.814 343.717,226.265 343.349,226.385 343.037 C 226.505 342.724,226.837 342.468,227.122 342.468 C 228.669 342.468,233.091 335.976,234.402 331.778 C 235.597 327.954,238.124 325.123,241.115 324.257 C 242.111 323.968,243.676 323.164,244.592 322.471 C 245.509 321.777,246.871 320.973,247.619 320.683 C 249.327 320.022,252.074 317.776,252.609 316.603 C 252.831 316.114,253.333 315.613,253.722 315.489 C 254.799 315.147,256.839 311.420,257.147 309.232 C 257.666 305.552,259.597 303.125,263.364 301.418 C 264.646 300.838,266.426 299.865,267.320 299.258 C 268.214 298.651,269.189 298.154,269.488 298.154 C 270.179 298.154,273.014 296.261,274.998 294.476 C 275.838 293.719,276.662 293.100,276.828 293.100 C 277.310 293.100,278.957 289.987,279.707 287.658 C 280.086 286.482,281.043 284.643,281.834 283.570 C 282.625 282.498,283.399 281.219,283.555 280.727 C 284.263 278.498,288.077 275.436,291.351 274.470 C 295.182 273.338,300.061 270.265,301.222 268.251 C 301.663 267.486,302.359 266.144,302.770 265.268 C 303.181 264.392,303.949 263.336,304.476 262.921 C 308.839 259.489,308.455 249.407,303.719 243.066 C 298.932 236.654,299.169 229.273,304.234 227.032 C 305.410 226.512,306.051 225.920,306.436 224.999 C 306.997 223.657,309.270 221.417,310.762 220.737 C 311.231 220.524,311.924 219.774,312.303 219.070 C 313.233 217.343,315.550 215.005,316.591 214.744 C 317.091 214.618,317.830 213.785,318.396 212.708 C 319.099 211.370,319.798 210.670,321.021 210.080 C 322.178 209.522,323.009 208.726,323.735 207.480 C 324.311 206.492,325.700 204.943,326.822 204.037 C 327.945 203.131,328.863 202.238,328.863 202.052 C 328.863 201.649,332.561 198.007,334.154 196.841 C 334.776 196.386,335.637 195.337,336.069 194.509 C 336.501 193.681,337.399 192.728,338.064 192.393 C 339.598 191.619,340.525 190.697,340.525 189.945 C 340.525 189.623,341.054 188.867,341.701 188.265 C 342.889 187.161,350.730 179.362,355.705 174.337 C 357.191 172.836,358.406 171.398,358.406 171.140 C 358.406 170.882,358.887 170.419,359.475 170.110 C 360.625 169.508,367.347 162.324,367.347 161.699 C 367.347 161.491,367.566 161.322,367.833 161.321 C 368.486 161.321,371.439 157.853,371.813 156.648 C 372.262 155.198,373.616 152.610,374.081 152.312 C 374.339 152.147,373.956 151.242,373.057 149.889 C 372.268 148.700,371.623 147.464,371.623 147.140 C 371.623 146.301,369.047 143.561,368.014 143.302 C 367.536 143.182,366.817 142.529,366.416 141.851 C 366.016 141.173,364.618 139.529,363.311 138.199 C 362.003 136.869,359.009 133.729,356.657 131.222 C 354.305 128.714,351.725 126.237,350.923 125.717 C 350.121 125.197,349.463 124.555,349.459 124.291 C 349.456 124.026,348.056 122.434,346.349 120.753 C 344.642 119.072,343.246 117.541,343.246 117.352 C 343.246 117.162,343.012 117.007,342.725 117.007 C 342.439 117.007,341.686 116.438,341.053 115.743 C 340.420 115.049,339.362 114.027,338.702 113.473 C 338.043 112.919,336.856 111.566,336.066 110.466 C 335.276 109.366,334.168 108.245,333.604 107.975 C 333.040 107.704,332.371 107.067,332.118 106.559 C 331.864 106.050,330.635 104.643,329.385 103.433 C 328.136 102.222,324.795 98.833,321.960 95.902 C 319.126 92.971,316.636 90.573,316.426 90.573 C 316.217 90.573,315.610 89.917,315.076 89.116 C 314.543 88.314,313.214 87.052,312.122 86.311 C 311.031 85.570,309.904 84.521,309.618 83.979 C 309.006 82.817,300.571 74.182,298.402 72.497 C 295.996 70.628,294.498 69.580,294.277 69.611 C 294.164 69.627,292.780 70.020,291.201 70.486 M295.682 84.712 C 296.353 85.122,297.490 86.095,298.208 86.875 C 298.927 87.655,300.033 88.763,300.668 89.336 C 301.303 89.910,302.552 91.141,303.445 92.072 C 304.338 93.004,305.393 94.102,305.790 94.513 C 306.187 94.924,307.255 95.888,308.163 96.655 C 309.072 97.422,309.815 98.271,309.815 98.542 C 309.815 98.813,310.559 99.673,311.467 100.452 C 314.193 102.790,316.016 104.674,316.241 105.383 C 316.358 105.751,317.389 106.758,318.532 107.621 C 319.675 108.484,320.998 109.818,321.473 110.585 C 321.947 111.353,323.290 112.592,324.457 113.338 C 325.872 114.243,326.767 115.145,327.142 116.044 C 327.463 116.810,328.341 117.793,329.179 118.321 C 329.989 118.833,331.168 119.909,331.799 120.712 C 333.380 122.726,334.720 124.027,336.391 125.170 C 337.173 125.705,338.336 126.978,338.977 127.999 C 339.618 129.021,340.545 130.010,341.038 130.197 C 342.018 130.570,344.250 132.944,344.852 134.256 C 345.061 134.711,346.086 135.645,347.130 136.333 C 348.237 137.062,349.298 138.153,349.677 138.951 C 350.034 139.703,350.963 140.705,351.742 141.179 C 353.926 142.506,356.037 144.270,356.265 144.957 C 356.378 145.299,357.238 146.395,358.175 147.392 C 361.262 150.678,361.153 153.227,357.767 156.883 C 357.156 157.543,356.362 158.631,356.001 159.302 C 355.640 159.974,354.408 161.122,353.263 161.855 C 352.118 162.587,350.979 163.630,350.732 164.171 C 350.034 165.704,348.628 167.160,347.077 167.955 C 346.114 168.449,345.384 169.253,344.797 170.465 C 343.739 172.651,340.809 174.957,337.390 176.297 C 334.197 177.549,334.569 177.652,331.438 174.636 C 327.060 170.415,325.856 169.191,320.117 163.114 C 317.123 159.944,313.888 156.627,312.928 155.741 C 311.967 154.855,310.218 153.085,309.040 151.808 C 307.863 150.531,303.401 145.962,299.125 141.655 C 294.849 137.347,290.395 132.707,289.226 131.343 C 288.057 129.979,286.277 128.163,285.270 127.308 C 284.262 126.453,283.425 125.565,283.410 125.334 C 283.395 125.104,282.376 123.929,281.147 122.723 C 279.917 121.517,278.427 119.818,277.836 118.948 C 277.244 118.078,276.457 117.257,276.086 117.124 C 275.716 116.992,274.451 115.978,273.274 114.872 C 272.098 113.765,270.939 112.787,270.699 112.698 C 269.999 112.439,268.601 106.175,269.026 105.200 C 269.787 103.451,275.651 97.182,276.525 97.182 C 276.748 97.182,278.251 95.851,279.865 94.224 C 281.479 92.597,283.291 90.804,283.891 90.240 C 284.492 89.675,285.225 88.760,285.521 88.207 C 286.447 86.472,288.618 85.141,291.440 84.580 C 292.888 84.291,294.159 84.036,294.266 84.012 C 294.373 83.988,295.010 84.303,295.682 84.712 M124.180 93.746 C 124.725 93.994,125.170 94.344,125.170 94.523 C 125.170 94.703,125.526 94.849,125.960 94.849 C 128.093 94.849,130.111 96.309,132.893 99.863 C 133.796 101.017,135.260 102.535,136.146 103.236 C 137.032 103.937,138.030 105.088,138.364 105.794 C 138.757 106.627,139.625 107.423,140.840 108.064 C 142.047 108.702,142.932 109.511,143.336 110.347 C 143.681 111.059,144.682 112.183,145.561 112.845 C 148.398 114.984,149.221 116.781,148.800 119.918 C 148.409 122.842,147.271 125.468,146.241 125.828 C 145.323 126.149,143.052 128.332,143.052 128.893 C 143.052 129.146,142.396 129.853,141.594 130.462 C 140.792 131.072,137.835 133.935,135.023 136.825 C 129.427 142.576,129.657 142.352,127.017 144.652 C 126.001 145.537,125.170 146.503,125.170 146.800 C 125.170 147.096,124.621 147.673,123.951 148.081 C 123.280 148.488,121.955 149.812,121.005 151.021 C 120.056 152.230,118.681 153.573,117.949 154.005 C 117.217 154.437,116.618 154.957,116.618 155.161 C 116.618 155.365,114.650 157.535,112.245 159.984 C 106.533 165.798,106.950 165.391,105.053 167.004 C 104.145 167.777,103.401 168.631,103.401 168.902 C 103.401 169.174,102.970 169.678,102.444 170.023 C 101.607 170.571,93.834 178.215,90.301 181.964 C 89.616 182.691,88.348 183.874,87.483 184.593 C 86.617 185.313,85.909 186.133,85.909 186.415 C 85.909 186.698,85.102 187.509,84.116 188.217 C 83.130 188.925,81.703 190.437,80.946 191.578 C 78.495 195.270,73.169 197.780,69.998 196.736 C 68.453 196.227,62.371 190.646,58.663 186.335 C 58.324 185.940,55.566 183.262,52.536 180.383 C 46.597 174.741,46.265 174.211,46.261 170.382 C 46.259 168.469,46.345 168.295,47.903 167.077 C 48.808 166.370,50.545 164.786,51.764 163.557 C 52.983 162.328,54.124 161.315,54.298 161.308 C 54.473 161.300,55.104 160.644,55.700 159.850 C 57.326 157.683,62.227 152.812,63.039 152.555 C 63.431 152.430,63.750 152.122,63.748 151.869 C 63.747 151.616,64.675 150.534,65.811 149.466 C 66.947 148.397,68.546 146.676,69.365 145.643 C 70.183 144.610,71.085 143.675,71.368 143.567 C 72.043 143.308,85.909 129.432,85.909 129.015 C 85.909 128.569,88.573 125.948,89.026 125.948 C 89.468 125.948,98.737 116.574,98.737 116.127 C 98.737 115.757,101.248 113.487,102.304 112.902 C 102.713 112.676,103.366 111.976,103.754 111.347 C 104.143 110.719,105.141 109.696,105.972 109.075 C 106.803 108.454,108.235 107.011,109.153 105.868 C 110.072 104.725,111.078 103.790,111.389 103.790 C 111.699 103.790,111.953 103.625,111.953 103.424 C 111.953 102.437,117.035 97.304,119.895 95.400 C 123.563 92.960,122.964 93.191,124.180 93.746 M298.761 114.679 L 297.339 117.386 298.815 118.953 L 300.292 120.520 302.624 120.073 C 305.935 119.439,305.832 119.487,306.445 118.290 C 307.747 115.748,305.628 112.731,302.540 112.731 C 302.024 112.731,301.282 112.560,300.892 112.352 C 300.281 112.024,299.989 112.342,298.761 114.679 M268.551 124.295 C 272.482 128.304,276.210 132.328,276.837 133.236 C 277.464 134.145,278.149 134.888,278.359 134.888 C 278.750 134.888,280.181 136.415,282.355 139.150 C 283.027 139.995,284.501 141.402,285.631 142.277 C 287.023 143.356,287.759 144.237,287.914 145.010 C 288.084 145.860,288.630 146.434,290.050 147.254 C 291.370 148.016,292.238 148.885,292.868 150.076 C 293.383 151.048,294.288 152.052,294.947 152.381 C 296.200 153.007,297.489 154.434,298.879 156.735 C 299.357 157.526,300.323 158.528,301.027 158.963 C 302.408 159.817,304.373 161.990,304.373 162.664 C 304.373 163.368,306.287 165.187,307.293 165.439 C 308.271 165.685,309.815 167.748,309.815 168.809 C 309.815 169.135,310.646 169.833,311.662 170.359 C 312.699 170.896,313.849 171.880,314.286 172.603 C 315.211 174.136,317.279 176.234,319.449 177.843 C 320.315 178.484,321.205 179.394,321.427 179.864 C 321.650 180.334,322.695 181.384,323.749 182.196 C 327.263 184.903,327.354 187.436,324.078 191.321 C 323.396 192.130,322.315 193.436,321.675 194.224 C 321.036 195.012,319.784 195.979,318.892 196.373 C 317.761 196.873,316.967 197.610,316.262 198.813 C 315.553 200.023,314.645 200.862,313.216 201.629 C 311.699 202.443,310.996 203.118,310.460 204.276 C 309.576 206.185,308.124 207.770,306.732 208.347 C 306.090 208.613,305.497 209.295,305.204 210.105 C 304.673 211.574,302.880 213.259,301.017 214.039 C 300.224 214.372,299.706 214.922,299.531 215.619 C 299.244 216.764,295.342 220.722,293.100 222.144 C 289.937 224.149,286.814 223.657,284.548 220.797 C 283.827 219.887,282.674 218.906,281.985 218.619 C 280.577 218.030,279.106 216.367,279.106 215.363 C 279.106 214.587,278.237 213.754,276.524 212.886 C 275.852 212.546,274.633 211.344,273.815 210.216 C 272.998 209.087,272.148 208.039,271.927 207.887 C 269.978 206.549,268.190 204.885,267.836 204.082 C 267.221 202.683,265.635 200.972,264.955 200.972 C 264.190 200.972,261.615 198.309,261.608 197.511 C 261.605 197.169,260.735 196.412,259.675 195.828 C 258.359 195.102,257.502 194.283,256.972 193.243 C 256.545 192.407,255.645 191.311,254.972 190.808 C 253.621 189.798,251.717 187.885,249.415 185.223 C 248.585 184.264,247.700 183.479,247.447 183.479 C 246.821 183.479,245.127 181.619,244.349 180.078 C 243.999 179.383,243.454 178.814,243.140 178.814 C 242.411 178.814,239.456 176.164,239.456 175.510 C 239.456 175.239,238.744 174.428,237.875 173.709 C 237.005 172.989,235.519 171.644,234.571 170.721 L 232.847 169.041 232.847 165.598 C 232.847 163.102,233.003 161.999,233.413 161.589 C 233.725 161.278,234.355 160.302,234.814 159.421 C 235.273 158.540,235.808 157.721,236.002 157.601 C 236.196 157.481,236.090 157.006,235.767 156.545 C 235.444 156.084,235.180 155.456,235.180 155.149 C 235.180 154.409,233.404 152.109,232.430 151.588 C 231.042 150.845,224.286 155.552,222.079 158.800 C 221.602 159.502,220.601 160.453,219.856 160.914 C 219.110 161.375,218.098 162.474,217.608 163.356 C 217.117 164.238,216.197 165.245,215.564 165.594 C 214.930 165.943,213.618 167.217,212.648 168.426 C 211.678 169.636,209.835 171.549,208.552 172.679 C 207.269 173.808,206.061 174.995,205.866 175.316 C 205.672 175.637,204.447 176.964,203.145 178.267 C 201.843 179.569,200.425 181.231,199.994 181.959 C 199.543 182.722,198.838 183.338,198.334 183.410 C 197.851 183.479,196.455 184.460,195.230 185.590 C 188.831 191.493,180.189 191.464,174.239 185.520 C 173.115 184.397,172.036 183.479,171.841 183.479 C 171.646 183.479,170.995 182.477,170.396 181.252 C 168.022 176.400,169.227 169.455,173.146 165.399 C 174.233 164.275,175.813 162.504,176.657 161.464 C 177.502 160.424,178.890 159.048,179.743 158.406 C 180.595 157.765,181.748 156.459,182.306 155.505 C 183.004 154.309,183.888 153.477,185.149 152.828 C 186.155 152.311,186.978 151.641,186.978 151.341 C 186.978 150.409,188.653 148.473,190.020 147.824 C 190.736 147.484,191.740 146.577,192.250 145.809 C 192.759 145.041,194.007 143.712,195.023 142.857 C 197.358 140.892,200.181 137.924,200.201 137.415 C 200.209 137.201,200.854 136.589,201.634 136.054 C 202.414 135.520,203.765 134.322,204.636 133.391 C 205.507 132.461,207.357 131.125,208.746 130.422 C 210.136 129.718,211.623 128.756,212.050 128.283 C 213.826 126.315,220.970 124.814,232.274 124.033 C 237.591 123.665,242.569 122.656,243.926 121.671 C 244.140 121.516,245.073 121.273,245.999 121.132 C 247.772 120.861,250.471 119.630,252.891 117.987 C 254.174 117.117,254.733 117.007,257.870 117.007 L 261.405 117.007 268.551 124.295 M172.256 126.356 C 172.763 126.623,174.349 127.602,175.781 128.532 C 177.213 129.463,178.578 130.224,178.814 130.224 C 183.650 130.224,184.891 140.391,180.402 143.225 C 179.589 143.738,178.273 145.046,177.476 146.131 C 176.679 147.217,175.801 148.105,175.524 148.105 C 175.247 148.105,174.412 148.848,173.667 149.757 C 172.922 150.666,170.972 152.714,169.334 154.308 C 167.695 155.903,165.921 157.947,165.391 158.851 C 164.862 159.754,163.918 160.857,163.294 161.301 C 160.728 163.129,159.452 171.459,160.328 180.670 C 160.890 186.588,161.081 187.120,163.429 189.335 C 164.194 190.057,164.820 190.813,164.820 191.015 C 164.820 191.826,169.797 196.588,171.997 197.882 C 179.185 202.110,196.059 200.915,199.645 195.923 C 200.394 194.881,201.786 193.572,202.738 193.013 C 203.691 192.455,204.470 191.827,204.470 191.617 C 204.470 191.068,207.597 187.755,208.116 187.754 C 208.356 187.754,209.153 186.872,209.887 185.795 C 210.621 184.718,212.080 183.100,213.129 182.200 C 214.178 181.300,215.711 179.917,216.535 179.127 C 220.309 175.508,226.618 176.117,229.932 180.419 C 230.573 181.252,231.851 182.390,232.770 182.949 C 233.749 183.544,234.716 184.538,235.102 185.347 C 235.466 186.107,236.516 187.266,237.435 187.922 C 238.355 188.579,239.445 189.638,239.856 190.277 C 240.762 191.686,249.921 200.972,250.403 200.972 C 250.592 200.972,251.273 201.803,251.917 202.818 C 252.561 203.834,253.813 205.238,254.698 205.939 C 255.584 206.640,256.722 207.821,257.226 208.563 C 257.730 209.305,258.277 209.913,258.441 209.913 C 258.954 209.913,270.122 221.214,270.364 221.978 C 270.491 222.376,271.173 223.060,271.881 223.497 C 272.588 223.934,273.652 224.993,274.246 225.849 C 274.839 226.705,275.541 227.405,275.805 227.405 C 276.070 227.405,277.032 228.236,277.943 229.252 C 278.854 230.267,281.457 233.105,283.726 235.559 C 293.982 246.646,292.651 245.071,294.740 248.591 C 297.077 252.529,297.215 256.678,295.060 258.227 C 294.700 258.486,293.922 259.592,293.331 260.685 C 291.190 264.647,285.081 266.101,280.227 263.805 C 279.035 263.241,277.867 262.779,277.632 262.779 C 277.398 262.779,276.452 261.903,275.532 260.833 C 274.611 259.762,273.026 258.319,272.009 257.626 C 270.992 256.933,270.072 256.091,269.964 255.756 C 269.712 254.968,260.530 245.605,259.502 245.086 C 259.071 244.869,258.230 243.963,257.633 243.073 C 257.035 242.184,255.675 240.816,254.609 240.034 C 253.544 239.252,252.672 238.425,252.672 238.196 C 252.672 237.558,248.087 232.962,245.574 231.082 C 243.097 229.228,242.948 229.223,239.312 230.880 L 237.419 231.743 237.684 234.142 C 237.948 236.536,238.604 237.847,240.809 240.391 C 241.348 241.012,241.788 241.662,241.788 241.834 C 241.788 242.322,244.997 245.287,245.525 245.287 C 246.105 245.287,247.963 247.451,248.425 248.666 C 248.613 249.159,249.019 249.563,249.329 249.563 C 250.222 249.563,252.263 251.480,252.840 252.862 C 253.130 253.557,254.042 254.624,254.866 255.234 C 255.691 255.845,257.100 257.136,257.998 258.104 C 258.895 259.072,259.883 260.126,260.192 260.447 C 261.202 261.495,262.839 262.779,263.163 262.779 C 263.338 262.779,264.112 263.730,264.884 264.893 C 265.655 266.055,266.614 267.110,267.015 267.237 C 270.422 268.318,272.403 278.691,270.249 284.168 C 269.403 286.319,264.995 289.213,262.565 289.213 C 262.250 289.213,261.665 289.417,261.266 289.666 C 259.262 290.917,252.397 287.097,248.552 282.590 C 248.103 282.063,246.922 280.968,245.928 280.156 C 244.934 279.343,244.121 278.452,244.121 278.175 C 244.121 277.533,242.972 276.492,241.353 275.669 C 240.656 275.314,239.726 274.376,239.285 273.584 C 238.845 272.791,237.846 271.654,237.066 271.057 C 236.286 270.460,234.504 268.659,233.106 267.055 C 231.708 265.452,230.020 263.790,229.355 263.362 C 228.690 262.935,227.781 262.001,227.334 261.288 C 226.254 259.562,225.079 258.503,224.243 258.503 C 223.868 258.503,222.803 257.574,221.878 256.437 C 219.983 254.111,219.831 254.096,216.327 255.877 C 212.843 257.647,212.344 261.123,215.327 262.835 C 215.907 263.169,216.742 264.168,217.182 265.057 C 217.621 265.945,218.877 267.385,219.972 268.257 C 221.067 269.129,221.963 269.975,221.963 270.136 C 221.963 270.298,223.209 271.639,224.732 273.116 C 228.757 277.020,229.691 277.988,230.789 279.397 C 231.331 280.092,232.009 280.661,232.298 280.661 C 232.586 280.661,233.516 281.579,234.364 282.702 C 235.212 283.824,236.440 285.057,237.092 285.441 C 237.745 285.826,238.707 286.701,239.232 287.385 C 239.756 288.070,241.466 289.982,243.032 291.634 C 251.565 300.636,250.021 309.162,238.935 314.253 C 237.130 315.082,231.546 313.680,230.609 312.163 C 230.340 311.727,229.889 311.370,229.607 311.370 C 229.157 311.370,227.801 310.243,224.287 306.949 C 223.233 305.960,222.509 304.636,221.179 301.263 C 220.715 300.087,219.896 298.163,219.359 296.987 C 218.822 295.811,218.258 294.500,218.105 294.072 C 217.206 291.560,215.097 287.897,214.229 287.338 C 212.724 286.369,211.439 285.287,210.035 283.810 C 208.878 282.593,206.408 281.414,203.489 280.687 C 200.539 279.951,198.662 277.629,195.216 270.456 C 193.294 266.453,192.379 265.031,190.462 263.070 C 189.157 261.734,187.620 260.161,187.047 259.573 C 186.401 258.909,185.593 258.504,184.916 258.504 C 179.687 258.502,173.714 252.758,170.495 244.639 C 169.679 242.580,168.552 240.512,167.826 239.741 C 167.135 239.008,166.169 237.956,165.679 237.403 C 165.189 236.850,163.352 235.683,161.597 234.809 C 148.926 228.503,147.333 227.029,147.325 221.601 C 147.324 220.838,147.018 219.760,146.645 219.205 C 143.929 215.164,142.838 213.828,141.281 212.634 C 140.305 211.885,138.902 210.708,138.163 210.017 C 135.586 207.606,132.582 206.819,125.948 206.817 C 122.494 206.816,116.940 207.976,116.681 208.752 C 116.428 209.510,114.522 211.110,112.731 212.068 C 110.562 213.228,109.688 213.993,108.482 215.790 C 107.963 216.564,106.913 217.526,106.150 217.928 C 104.542 218.775,103.433 219.950,103.414 220.826 C 103.380 222.459,101.547 223.327,98.275 223.259 C 93.888 223.168,93.515 223.012,91.696 220.500 C 90.807 219.274,89.162 217.308,88.039 216.132 C 86.917 214.956,85.343 213.120,84.542 212.052 C 83.742 210.983,82.768 209.886,82.378 209.613 C 81.704 209.141,81.723 209.011,82.790 206.891 C 83.406 205.667,84.284 203.841,84.742 202.834 C 85.436 201.306,85.915 200.841,87.631 200.029 C 88.762 199.494,89.994 198.569,90.369 197.973 C 90.743 197.378,92.385 195.577,94.018 193.973 C 95.651 192.368,97.425 190.415,97.959 189.632 C 98.494 188.848,99.453 187.975,100.090 187.690 C 100.728 187.405,101.631 186.560,102.097 185.811 C 103.165 184.096,104.018 183.243,105.734 182.174 C 106.482 181.708,107.331 180.806,107.620 180.168 C 107.909 179.530,108.834 178.484,109.676 177.843 C 111.958 176.105,113.088 174.894,113.920 173.298 C 114.637 171.921,116.509 170.231,117.826 169.770 C 118.170 169.650,118.794 168.881,119.214 168.061 C 119.675 167.160,120.813 166.004,122.088 165.142 C 123.395 164.257,124.425 163.202,124.793 162.369 C 125.576 160.599,126.233 159.842,127.894 158.793 C 128.650 158.316,129.756 157.159,130.351 156.222 C 131.387 154.590,133.972 152.381,134.845 152.381 C 135.074 152.381,135.616 151.686,136.049 150.836 C 136.501 149.950,137.756 148.613,138.991 147.700 C 140.176 146.825,141.420 145.532,141.757 144.827 C 142.093 144.122,142.984 143.041,143.737 142.424 C 145.496 140.982,146.897 139.552,148.061 138.006 C 148.572 137.328,149.641 136.363,150.437 135.860 C 151.233 135.358,152.350 134.152,152.919 133.181 C 153.488 132.210,154.605 130.933,155.402 130.343 C 156.199 129.753,157.689 128.534,158.712 127.634 C 159.735 126.734,160.960 125.911,161.433 125.805 C 163.052 125.441,171.320 125.862,172.256 126.356 M110.689 127.501 C 109.796 128.743,109.707 129.116,110.024 130.261 C 110.227 130.989,110.575 132.328,110.799 133.236 C 111.556 136.311,116.907 134.701,117.563 131.201 C 117.710 130.419,117.911 129.568,118.010 129.310 C 118.377 128.355,117.115 127.453,114.455 126.769 L 111.721 126.065 110.689 127.501 M316.702 133.296 C 316.231 134.093,316.035 135.285,316.035 137.350 C 316.035 140.512,315.889 140.260,318.991 142.468 C 320.355 143.439,320.914 144.054,321.996 145.773 C 322.468 146.521,323.462 147.436,324.206 147.805 C 325.756 148.576,327.303 150.319,327.306 151.298 C 327.310 152.764,333.946 154.680,335.405 153.637 C 335.923 153.267,336.735 152.702,337.210 152.381 L 338.075 151.798 337.250 148.685 C 336.296 145.083,335.667 144.043,333.861 143.081 C 333.143 142.699,332.375 142.032,332.155 141.600 C 331.935 141.168,329.760 138.869,327.322 136.491 L 322.890 132.167 320.129 132.167 C 317.495 132.167,317.338 132.219,316.702 133.296 M91.059 145.301 C 89.723 145.635,88.630 146.123,88.630 146.386 C 88.630 146.650,88.016 147.625,87.266 148.554 C 85.402 150.863,85.422 150.842,83.722 152.412 C 82.894 153.177,81.674 154.412,81.012 155.156 C 80.350 155.901,79.225 156.678,78.512 156.882 C 77.593 157.146,77.134 157.555,76.939 158.284 C 76.629 159.444,75.385 161.291,74.901 161.309 C 72.894 161.387,68.801 168.022,69.508 170.053 C 69.734 170.703,70.107 171.957,70.336 172.841 C 70.935 175.144,71.271 175.301,74.493 174.787 C 77.120 174.367,77.334 174.254,78.575 172.620 C 79.295 171.672,80.635 170.447,81.552 169.899 C 82.470 169.351,83.580 168.290,84.019 167.541 C 84.895 166.048,87.232 163.780,88.215 163.468 C 88.559 163.359,89.173 162.650,89.581 161.893 C 90.319 160.521,93.373 157.434,93.991 157.434 C 94.170 157.434,94.605 156.830,94.957 156.091 C 95.310 155.352,96.217 154.063,96.973 153.226 C 98.589 151.437,98.564 151.644,97.558 148.441 C 96.379 144.686,95.405 144.215,91.059 145.301 M130.658 218.593 C 133.061 220.035,135.339 221.711,136.894 223.181 L 138.387 224.593 138.387 228.638 C 138.387 233.271,137.804 234.913,135.479 236.829 C 134.727 237.450,134.111 238.184,134.111 238.462 C 134.111 238.739,133.383 239.645,132.492 240.474 C 131.602 241.304,130.334 242.568,129.674 243.283 C 128.484 244.573,118.599 254.710,113.588 259.779 C 108.071 265.360,101.865 266.774,97.376 263.472 C 90.118 258.133,89.001 251.797,94.342 246.259 C 95.167 245.403,96.362 244.004,96.997 243.149 C 98.791 240.737,108.937 230.496,112.070 227.936 C 112.629 227.479,113.631 226.297,114.298 225.310 C 114.964 224.323,115.890 223.311,116.355 223.062 C 117.999 222.183,120.894 219.848,120.894 219.401 C 120.894 217.795,128.305 217.182,130.658 218.593 M155.738 244.359 C 160.077 245.802,160.858 246.735,162.261 252.155 C 162.916 254.687,162.888 254.870,161.331 258.289 C 160.898 259.239,160.540 260.244,160.536 260.523 C 160.523 261.275,159.338 262.541,158.044 263.184 C 157.418 263.496,156.630 264.276,156.295 264.917 C 155.960 265.559,154.195 267.570,152.374 269.388 C 150.553 271.205,148.521 273.304,147.857 274.052 C 147.194 274.801,146.095 275.716,145.416 276.086 C 144.643 276.507,143.898 277.398,143.425 278.467 C 142.908 279.636,142.295 280.330,141.484 280.666 C 139.749 281.385,138.387 282.563,138.387 283.345 C 138.387 284.301,135.950 286.156,132.107 288.123 L 128.840 289.796 125.596 289.446 L 122.352 289.096 119.913 286.814 C 116.451 283.576,114.137 278.475,115.199 276.423 C 118.669 269.715,120.138 267.666,122.101 266.795 C 122.677 266.539,123.641 265.412,124.337 264.179 C 125.060 262.898,126.182 261.601,127.083 261.004 C 127.921 260.450,129.041 259.339,129.572 258.537 C 130.104 257.734,131.429 256.505,132.519 255.806 C 133.608 255.107,134.500 254.413,134.500 254.264 C 134.500 253.602,138.468 249.627,139.350 249.405 C 139.889 249.270,140.330 248.994,140.330 248.791 C 140.330 245.092,149.772 242.376,155.738 244.359 M179.592 267.486 C 181.783 268.065,183.700 270.198,185.406 273.955 C 185.916 275.078,186.478 275.996,186.655 275.996 C 188.034 275.996,185.594 283.578,183.495 285.818 C 182.847 286.509,182.315 287.250,182.314 287.464 C 182.312 287.677,181.775 288.202,181.121 288.630 C 180.467 289.057,179.311 290.245,178.552 291.268 C 177.793 292.291,176.511 293.466,175.704 293.878 C 174.825 294.326,174.080 295.062,173.849 295.710 C 173.637 296.306,171.140 299.067,168.301 301.846 C 165.461 304.626,162.110 307.906,160.853 309.135 C 159.596 310.364,158.326 311.370,158.031 311.370 C 157.736 311.370,156.953 311.826,156.292 312.382 C 151.678 316.264,145.284 314.593,141.943 308.633 C 138.841 303.097,140.555 294.138,145.426 290.432 C 146.447 289.655,147.293 288.800,147.305 288.533 C 147.335 287.891,150.300 284.938,150.923 284.931 C 151.190 284.928,152.053 284.047,152.840 282.975 C 153.627 281.902,155.088 280.349,156.088 279.523 C 157.087 278.697,158.606 277.172,159.463 276.134 C 160.321 275.096,161.718 273.786,162.569 273.222 C 163.420 272.658,164.642 271.559,165.285 270.779 C 168.044 267.432,174.104 266.037,179.592 267.486 M202.797 291.353 C 203.693 291.559,208.746 296.421,208.746 297.077 C 208.746 297.287,209.198 297.995,209.751 298.652 C 210.863 299.974,210.841 304.175,209.712 306.317 C 209.430 306.851,208.912 307.838,208.560 308.508 C 208.209 309.179,207.394 310.316,206.748 311.035 C 206.103 311.754,205.310 312.779,204.986 313.314 C 204.662 313.848,203.625 314.861,202.680 315.565 C 201.736 316.268,200.659 317.490,200.287 318.281 C 199.914 319.071,199.144 319.941,198.575 320.214 C 198.007 320.486,197.045 321.330,196.438 322.089 C 195.832 322.848,194.651 324.114,193.815 324.903 C 192.979 325.691,191.059 327.617,189.550 329.183 C 188.040 330.748,186.002 332.549,185.021 333.185 C 184.039 333.821,182.951 334.825,182.601 335.417 C 180.221 339.446,172.311 339.278,167.799 335.103 C 166.978 334.343,166.083 333.595,165.809 333.440 C 164.633 332.773,163.535 328.563,163.760 325.586 C 164.087 321.260,165.186 319.373,170.678 313.703 C 173.266 311.030,175.651 308.450,175.978 307.969 C 176.304 307.488,176.808 307.094,177.096 307.094 C 177.385 307.094,177.785 306.788,177.987 306.414 C 178.510 305.440,187.748 296.160,189.534 294.814 C 190.359 294.192,191.355 293.368,191.747 292.983 C 192.139 292.597,193.524 291.787,194.825 291.183 C 197.393 289.989,196.805 289.976,202.797 291.353 M222.033 319.825 C 224.872 322.795,225.560 327.259,223.750 330.959 C 221.660 335.230,216.354 338.856,213.217 338.156 C 212.575 338.013,211.360 337.875,210.517 337.850 C 204.422 337.667,202.265 328.983,207.283 324.832 C 208.195 324.078,209.291 322.915,209.718 322.249 C 212.313 318.203,219.189 316.850,222.033 319.825 "
              stroke="none" fill="#f83444" fill-rule="evenodd"></path>
    </g>
</svg>
