<svg version="1.1" width="40" height="40" viewBox="70 40 250 250" xmlns="http://www.w3.org/2000/svg"
     xmlns:xlink="http://www.w3.org/1999/xlink">
    <g>
        <path id="path0"
              d="M136.307 61.477 C 135.060 61.925,133.966 62.388,133.876 62.507 C 133.785 62.626,132.982 63.067,132.091 63.487 C 128.975 64.955,128.513 65.253,126.794 66.899 C 124.979 68.638,122.853 71.635,122.853 72.454 C 122.853 72.718,122.734 72.934,122.588 72.934 C 122.263 72.934,121.243 74.994,120.864 76.418 C 120.710 76.998,120.439 78.019,120.262 78.687 C 119.641 81.030,119.844 246.311,120.471 249.068 C 120.935 251.108,123.008 255.705,123.844 256.548 C 124.012 256.717,124.149 257.097,124.149 257.391 C 124.149 257.815,127.486 261.264,127.896 261.264 C 127.953 261.264,128.478 261.702,129.064 262.237 C 129.649 262.771,130.241 263.209,130.379 263.209 C 130.517 263.209,131.761 263.736,133.143 264.381 C 134.526 265.026,136.256 265.828,136.989 266.164 C 139.042 267.105,261.298 267.122,263.165 266.181 C 263.813 265.854,265.393 265.052,266.676 264.398 C 267.958 263.744,269.212 263.209,269.461 263.209 C 269.937 263.209,272.609 260.678,272.609 260.228 C 272.609 260.085,272.792 259.963,273.015 259.957 C 274.155 259.926,274.873 258.870,278.407 252.026 L 279.579 249.757 279.579 163.533 L 279.579 77.310 278.146 74.554 C 277.358 73.039,276.429 71.248,276.082 70.575 C 275.735 69.902,275.018 68.954,274.490 68.468 C 273.962 67.982,272.815 66.896,271.941 66.053 C 271.068 65.211,269.949 64.423,269.455 64.304 C 268.961 64.185,268.193 63.852,267.747 63.566 C 267.301 63.279,266.426 62.811,265.802 62.525 C 265.178 62.240,264.084 61.730,263.371 61.392 C 262.114 60.797,260.195 60.776,200.324 60.720 L 138.574 60.662 136.307 61.477 M260.280 75.792 C 262.779 76.666,263.290 77.089,264.440 79.237 L 265.316 80.875 265.316 163.533 L 265.316 246.191 264.587 247.214 C 264.186 247.776,263.857 248.403,263.857 248.608 C 263.857 249.042,261.579 251.207,261.102 251.225 C 260.924 251.232,260.194 251.519,259.481 251.864 C 258.215 252.476,256.830 252.490,200.188 252.501 L 142.190 252.512 140.058 251.669 C 138.014 250.860,136.143 249.504,136.143 248.830 C 136.143 248.655,135.913 248.258,135.632 247.948 C 134.072 246.223,134.109 248.265,134.071 162.723 C 134.038 87.892,134.071 82.723,134.594 81.297 C 136.184 76.952,137.182 76.179,142.464 75.193 C 143.177 75.060,169.506 74.975,200.972 75.005 L 258.185 75.060 260.280 75.792 M214.749 88.175 C 210.398 88.613,209.486 89.236,208.940 92.141 C 208.432 94.846,208.826 95.313,213.128 97.108 C 215.633 98.153,250.891 97.696,250.891 96.618 C 250.891 96.488,251.537 95.918,252.327 95.352 C 253.691 94.372,253.747 94.269,253.461 93.273 C 253.296 92.696,253.160 91.778,253.160 91.231 C 253.160 90.418,252.882 90.038,251.621 89.131 L 250.081 88.024 233.549 87.985 C 224.457 87.964,215.997 88.049,214.749 88.175 M212.318 111.362 C 209.537 113.077,209.111 113.710,209.421 115.667 C 209.781 117.947,210.161 118.507,211.917 119.343 L 213.452 120.074 231.612 120.085 L 249.772 120.097 250.716 119.355 C 252.130 118.243,253.376 114.241,252.482 113.683 C 252.142 113.470,251.861 113.149,251.858 112.969 C 251.848 112.342,250.395 111.285,248.808 110.750 C 247.396 110.274,245.281 110.214,230.655 110.236 L 214.100 110.262 212.318 111.362 M215.005 133.867 C 213.898 133.994,212.752 134.296,212.458 134.540 C 212.165 134.783,211.626 135.134,211.261 135.320 C 209.647 136.139,208.733 137.828,209.157 139.208 C 209.631 140.754,211.636 142.950,212.572 142.950 C 212.946 142.950,213.342 143.096,213.452 143.274 C 213.736 143.733,246.279 143.710,248.775 143.248 C 250.522 142.925,251.820 142.069,251.853 141.217 C 251.859 141.066,252.132 140.556,252.459 140.082 C 253.545 138.515,253.509 138.232,251.976 136.253 C 250.523 134.377,250.490 134.356,248.189 133.975 C 245.630 133.551,218.555 133.463,215.005 133.867 M215.073 156.535 C 211.562 156.977,210.503 157.876,209.063 161.636 C 208.741 162.477,210.029 164.017,212.376 165.593 L 213.893 166.613 230.393 166.613 C 246.122 166.613,250.567 166.395,250.567 165.623 C 250.567 165.485,251.147 164.739,251.855 163.966 C 253.346 162.339,253.381 162.159,252.512 160.538 C 252.156 159.873,251.864 159.144,251.864 158.919 C 251.864 158.020,250.545 157.255,248.131 156.756 C 245.553 156.223,218.965 156.045,215.073 156.535 M149.271 184.189 C 148.736 184.378,147.934 184.780,147.488 185.083 C 147.042 185.385,146.452 185.713,146.177 185.811 C 145.862 185.924,145.519 186.783,145.253 188.121 C 144.760 190.599,145.159 191.433,147.403 192.617 C 148.074 192.972,148.924 193.538,149.292 193.875 C 150.096 194.614,246.145 194.857,248.784 194.127 C 250.301 193.708,254.133 190.725,254.133 189.963 C 254.133 187.187,251.842 184.548,249.028 184.085 C 246.567 183.680,150.424 183.780,149.271 184.189 M149.433 206.807 C 149.076 207.164,148.651 207.455,148.487 207.455 C 148.324 207.455,148.142 207.565,148.082 207.699 C 148.023 207.832,147.417 208.358,146.736 208.867 L 145.499 209.791 145.729 211.946 C 145.973 214.232,146.052 214.342,148.460 215.720 C 149.582 216.362,150.163 216.370,199.699 216.370 L 249.804 216.370 251.171 215.465 C 254.998 212.932,253.255 207.423,248.331 206.489 C 244.486 205.760,150.177 206.063,149.433 206.807 M149.294 230.146 C 148.899 230.413,148.151 231.033,147.630 231.524 C 147.110 232.014,146.584 232.415,146.461 232.415 C 145.201 232.415,145.348 236.293,146.635 237.013 C 146.926 237.176,147.164 237.521,147.164 237.779 C 147.164 238.038,147.382 238.250,147.650 238.250 C 147.917 238.250,148.136 238.376,148.136 238.530 C 148.136 239.859,148.556 239.870,198.134 239.870 C 250.227 239.870,251.779 239.811,251.854 237.813 C 251.859 237.663,252.126 237.152,252.447 236.679 C 253.824 234.646,253.860 234.183,252.737 232.972 C 252.167 232.359,251.382 231.480,250.990 231.020 C 250.431 230.361,249.877 230.140,248.397 229.983 C 243.726 229.490,150.035 229.644,149.294 230.146 "
              stroke="none" fill="#fa3541" fill-rule="evenodd"></path>
    </g>
</svg>
