<svg version="1.1" width="40" viewBox="85 50 240 240"
     xmlns="http://www.w3.org/2000/svg" xmlns:xlink="http://www.w3.org/1999/xlink">
    <g>
        <path id="path0"
              d="M122.006 85.514 C 121.367 86.548,120.022 87.849,119.592 87.849 C 118.097 87.849,118.195 83.101,118.109 159.051 L 118.030 228.981 118.671 230.561 C 119.213 231.897,119.528 232.247,120.712 232.825 C 121.483 233.201,122.210 233.645,122.329 233.811 C 122.726 234.368,235.912 234.372,236.374 233.815 C 236.583 233.564,236.997 233.358,237.295 233.358 C 237.593 233.358,237.882 233.244,237.937 233.103 C 237.992 232.963,238.432 232.658,238.914 232.424 C 240.668 231.575,240.712 231.062,240.829 209.962 C 240.954 187.677,241.007 188.177,238.340 186.482 C 237.509 185.955,236.694 185.354,236.528 185.146 C 236.004 184.492,231.766 184.495,231.109 185.150 C 230.808 185.451,230.031 185.926,229.382 186.207 C 228.566 186.559,228.154 186.950,228.049 187.472 C 227.965 187.887,227.745 188.770,227.560 189.434 C 227.337 190.232,227.210 195.299,227.186 204.387 C 227.145 219.517,227.254 218.577,225.283 220.830 C 223.768 222.561,225.647 222.494,179.196 222.492 C 133.434 222.490,133.756 222.501,133.191 220.990 C 133.096 220.736,132.857 220.392,132.659 220.226 C 131.102 218.918,131.170 221.641,131.170 160.453 C 131.170 93.817,130.812 99.392,135.163 98.259 C 137.884 97.550,220.197 97.590,223.075 98.301 C 227.222 99.326,227.135 98.947,227.161 116.075 C 227.187 133.000,227.195 133.044,230.892 134.825 C 232.255 135.482,236.049 135.527,236.816 134.894 C 236.990 134.751,237.735 134.170,238.472 133.603 C 240.962 131.689,240.870 132.561,240.889 110.854 C 240.907 90.334,240.747 87.849,239.408 87.849 C 238.856 87.849,236.934 85.940,236.598 85.057 C 236.407 84.556,233.409 84.528,179.506 84.528 L 122.615 84.528 122.006 85.514 M264.905 121.924 C 261.331 123.864,260.598 128.608,263.404 131.646 C 264.106 132.405,264.764 133.288,264.867 133.608 C 264.969 133.927,265.662 134.596,266.406 135.094 C 267.151 135.592,268.178 136.576,268.689 137.280 C 269.200 137.984,270.191 138.954,270.891 139.436 C 271.592 139.918,272.345 140.649,272.566 141.061 C 272.786 141.473,273.462 142.091,274.068 142.434 C 275.230 143.092,275.825 143.694,277.256 145.660 C 277.739 146.325,278.215 146.936,278.312 147.019 C 280.208 148.625,279.239 152.278,276.612 153.434 C 275.968 153.717,266.718 153.819,236.830 153.872 C 171.001 153.988,175.475 153.674,173.507 158.322 L 172.634 160.381 173.412 161.879 C 173.839 162.702,174.189 163.557,174.189 163.777 C 174.189 164.268,176.011 165.432,176.790 165.438 C 177.103 165.441,177.964 165.654,178.705 165.911 C 179.901 166.328,185.275 166.375,227.157 166.333 C 273.787 166.286,277.380 166.351,277.686 167.251 C 277.741 167.414,277.952 167.547,278.154 167.547 C 278.357 167.547,278.742 168.192,279.010 168.981 C 280.015 171.940,280.100 171.696,277.092 174.503 C 272.984 178.336,272.895 178.415,272.666 178.412 C 272.372 178.407,266.868 184.189,266.868 184.502 C 266.868 184.641,266.660 184.755,266.406 184.755 C 266.151 184.755,265.853 184.990,265.743 185.276 C 265.633 185.563,265.174 186.109,264.722 186.489 C 262.944 187.985,261.837 190.170,261.643 192.562 L 261.463 194.785 263.498 196.864 L 265.532 198.943 267.804 198.943 C 269.931 198.943,270.131 198.886,270.938 198.043 C 271.412 197.548,272.347 196.767,273.016 196.308 C 274.458 195.316,275.623 194.278,275.623 193.984 C 275.623 193.683,281.268 188.075,281.571 188.075 C 281.840 188.075,290.717 179.412,290.717 179.150 C 290.717 178.854,292.039 177.208,292.277 177.208 C 292.408 177.208,293.240 176.494,294.126 175.623 C 295.012 174.751,296.340 173.477,297.076 172.792 C 300.954 169.185,305.605 164.091,305.824 163.212 C 305.954 162.691,306.239 161.820,306.457 161.277 C 306.947 160.059,306.167 156.603,305.200 155.702 C 304.872 155.396,304.604 155.025,304.604 154.876 C 304.604 154.558,300.450 150.417,297.681 147.976 C 294.046 144.770,290.835 141.426,289.083 139.019 C 288.599 138.355,288.056 137.755,287.875 137.687 C 287.571 137.571,285.706 135.841,281.256 131.547 C 280.267 130.592,279.361 129.811,279.243 129.811 C 279.125 129.811,278.771 129.459,278.457 129.029 C 277.092 127.156,272.665 123.018,270.935 121.997 C 269.587 121.202,266.309 121.162,264.905 121.924 "
              stroke="none" fill="#f62235" fill-rule="evenodd"></path>
    </g>
</svg>
